<svg xmlns="http://www.w3.org/2000/svg" width="30.202" height="27.182" viewBox="0 0 30.202 27.182"><defs><style>.a{fill:#6699db;}</style></defs><path class="a" d="M30.2,12.061c-.05-.861-1.074-1.534-3.123-2.048a1.135,1.135,0,0,0,.108-.471V6.02h-.009C26.993,3.087,14.972,3,13.591,3S.189,3.087.009,6.02H0v.065H0V9.543c0,.956,1.237,1.7,3.073,2.262a1.1,1.1,0,0,0-.045.255H3.02v.065h0v3.452C1.042,16.087.054,16.751.005,17.6H0v.065H0v3.458c0,.666.6,1.231,1.585,1.7a1.109,1.109,0,0,0-.067.313H1.51V23.2h0v3.458c0,1.674,3.774,2.714,7.962,3.2a.462.462,0,0,0,.092.019c.01,0,.018-.005.027-.006.807.091,1.628.162,2.44.213a.417.417,0,0,0,.05.01c.01,0,.017-.005.026-.006,1.031.062,2.045.094,2.994.094s1.963-.032,2.994-.095c.009,0,.017.006.026.006s.033-.009.05-.01c.812-.051,1.632-.121,2.44-.213.01,0,.018.005.027.005a.462.462,0,0,0,.092-.019c4.189-.485,7.958-1.525,7.962-3.2V23.135h-.008c-.035-.617-.561-1.132-1.6-1.562a1.125,1.125,0,0,0,.1-.453v-3.29c1.807-.556,3.018-1.3,3.02-2.247V12.061Zm-4.076,9.222-.172.151a4.5,4.5,0,0,1-1.284.695v-2.4a7.491,7.491,0,0,0,1.51-.693v2.083A.32.32,0,0,1,26.121,21.283ZM14.863,23.622l-.221,0c-.18,0-.364,0-.546.006V21.118l.415-.006.08,0q.76-.014,1.518-.048v2.513l-.325.015C15.48,23.6,15.174,23.615,14.863,23.622Zm-2.2.007q-.346-.006-.688-.017l-.085,0q-.412-.014-.817-.034V21.063q.757.035,1.518.048l.08,0,.415.006v2.516l-.292,0ZM3.572,22.481l-.049-.014V20.036c.47.127.976.243,1.51.348V22.84q-.693-.147-1.277-.307Zm10.61,4.168.415.006v2.516q-1.043-.01-2.013-.058V26.6q.757.035,1.518.048Zm1.917,0q.76-.014,1.518-.048v2.513q-.969.048-2.013.058V26.655l.415-.006Zm4.035-.228v2.5q-.726.076-1.51.132v-2.51C19.135,26.509,19.64,26.469,20.135,26.421Zm1.007-.109q.778-.094,1.51-.212v2.472q-.711.125-1.51.231Zm2.517-.392c.535-.105,1.04-.221,1.51-.348V28c-.449.129-.953.255-1.51.373Zm-17.115,0v2.457c-.557-.118-1.062-.244-1.51-.373V25.572C5.5,25.7,6.009,25.815,6.544,25.92Zm1.007.18q.731.119,1.51.212V28.8q-.8-.1-1.51-.231Zm2.517.321c.5.048,1,.089,1.51.122v2.51q-.785-.055-1.51-.132Zm-1.249-3.01L8.666,23.4l-.108-.012v-2.5c.5.048,1,.089,1.51.122v2.508C9.645,23.485,9.227,23.45,8.819,23.411ZM7.551,20.775v2.49q-.8-.1-1.51-.231V20.563Q6.771,20.681,7.551,20.775Zm9.9,2.716-.335.025v-2.51c.51-.034,1.015-.074,1.51-.122v2.5c-.311.033-.629.063-.956.09Zm2.182-.227v-2.49q.778-.094,1.51-.212v2.472Q20.43,23.16,19.631,23.265Zm2.517-2.882c.535-.105,1.04-.221,1.51-.348v2.432c-.449.129-.953.255-1.51.373Zm-6.884-2.3c-.379-.01-.749-.024-1.112-.042l-.058,0V15.526q.757.035,1.518.048l.08,0,.415.006V18.1c-.245,0-.492,0-.731-.009ZM3.524,10.89V8.458c.47.127.976.243,1.51.348v2.457l-.186-.039c-.268-.059-.529-.12-.779-.185C3.878,10.99,3.7,10.94,3.524,10.89Zm9.149-1.355.415.006v2.513c-.678-.007-1.351-.024-2.013-.057V9.486q.757.035,1.518.048Zm1.917,0q.76-.014,1.518-.048V12l-.254.014h-.022c-.338.015-.682.026-1.031.034l-.163,0c-.179,0-.362,0-.544.006V9.541l.415-.006Zm11.47.253-.014,0-.183.142a4.9,4.9,0,0,1-1.2.619V8.15a7.491,7.491,0,0,0,1.51-.693V9.54A.4.4,0,0,1,26.06,9.786Zm-6.429,1.9V9.2q.778-.094,1.51-.212v2.468C20.664,11.537,20.162,11.615,19.631,11.684Zm2.517-.425V8.806c.535-.105,1.04-.221,1.51-.348v2.426C23.207,11.016,22.7,11.141,22.148,11.259ZM18.625,9.306v2.5q-.729.077-1.51.133V9.429C17.625,9.395,18.129,9.354,18.625,9.306ZM8.557,11.8v-2.5c.5.048,1,.089,1.51.122v2.506C9.555,11.9,9.05,11.856,8.557,11.8ZM7.551,9.2v2.487c-.1-.013-.2-.024-.3-.037l-.189-.028q-.436-.063-.854-.133l-.165-.029V8.986Q6.771,9.1,7.551,9.2Zm5.412,8.772-.2-.015q-.483-.038-.944-.084l-.2-.02-.04,0v-2.5c.5.048,1,.089,1.51.122v2.509Zm-3.326-.376c-.2-.032-.387-.066-.576-.1V15.026q.731.119,1.51.212v2.49c-.308-.041-.61-.083-.9-.128ZM8.054,14.846V17.3q-.834-.179-1.51-.378V14.5C7.014,14.625,7.519,14.741,8.054,14.846ZM5.537,14.19v2.392a3.14,3.14,0,0,1-1.468-.9l-.034-.056a.318.318,0,0,1-.009-.048V13.5A7.491,7.491,0,0,0,5.537,14.19ZM17.61,15.574q.76-.014,1.518-.048v2.511c-.661.033-1.334.051-2.013.058V15.582l.415-.006Zm6.505,1.931c-.221.038-.444.076-.673.111l-.4.058c-.127.018-.26.034-.389.05V15.238q.778-.094,1.51-.212V17.5Zm-3.408.43c-.188.016-.382.026-.572.039V15.469c.51-.034,1.015-.074,1.51-.122v2.5c-.292.031-.584.061-.885.087Zm5.753-.944c-.251.07-.516.135-.787.2-.125.029-.253.058-.384.087l-.119.025V14.846c.535-.105,1.04-.221,1.51-.348V16.93Zm2.731-4.9c-.046.342-.821.8-2.2,1.224h0a33.787,33.787,0,0,1-8.1,1.21c-.181.008-.361.015-.545.021l-.455.014c-.417.009-.84.016-1.276.016s-.859-.007-1.276-.016c-.153,0-.3-.009-.455-.014-.185-.006-.365-.014-.545-.021a33.783,33.783,0,0,1-8.1-1.21h0c-1.372-.424-2.145-.875-2.2-1.215a.118.118,0,0,1,.009-.03l.107.024c.2.047.4.092.6.135,1,.215,2.109.392,3.29.527l.011,0h0c.8.092,1.639.164,2.5.214.007,0,.012,0,.019,0l.01,0q.925.054,1.874.077c.387.01.767.015,1.137.015.264,0,.535,0,.808-.008a38.546,38.546,0,0,0,9.406-1.165c.109-.031.215-.062.32-.094l.191-.058c.182-.058.357-.118.526-.181l.086-.033c.142-.054.279-.11.41-.167l.113-.049c.139-.063.274-.127.4-.194.056-.03.105-.06.158-.091s.121-.07.177-.106c.032-.02.069-.039.1-.059C28.539,11.35,29.133,11.885,29.19,12.093Zm-15.6-8.087c8.3,0,12.5,1.307,12.577,2.057-.061.34-.834.79-2.2,1.213h0a33.787,33.787,0,0,1-8.1,1.21c-.181.008-.361.015-.545.021l-.455.014c-.417.01-.84.016-1.276.016s-.859-.007-1.276-.016c-.153,0-.3-.009-.455-.014-.185-.006-.365-.014-.545-.021a33.783,33.783,0,0,1-8.1-1.21h0c-1.369-.423-2.141-.872-2.2-1.213C1.093,5.313,5.291,4.007,13.591,4.007ZM1.007,9.542V7.457a7.491,7.491,0,0,0,1.51.693v2.41C1.538,10.193,1.008,9.825,1.007,9.542Zm2.438,6.966c.008.008.019.015.027.023a8.563,8.563,0,0,0,3.893,1.65l.125.028q.2.044.4.086a38.821,38.821,0,0,0,5.7.723h.006q1.022.06,2.091.08c.315.007.625.011.928.011.347,0,.7,0,1.066-.013.658-.014,1.307-.041,1.947-.078l.007,0,.013,0a38.933,38.933,0,0,0,5.811-.744,9.12,9.12,0,0,1-1.489.582h0a34.736,34.736,0,0,1-8.7,1.233l-.34.011-.374.008c-.317.005-.635.01-.962.01-.436,0-.859-.007-1.276-.016-.153,0-.3-.009-.455-.014-.185-.006-.365-.014-.545-.021a33.783,33.783,0,0,1-8.1-1.21h0c-1.384-.428-2.159-.883-2.2-1.225C1.068,17.44,1.577,16.966,3.445,16.508ZM1.007,21.119V19.035a7.491,7.491,0,0,0,1.51.693v2.4l-.287-.112-.006.006C1.433,21.695,1.008,21.373,1.007,21.119Zm1.51,5.537V24.572a7.491,7.491,0,0,0,1.51.693v2.41C3.048,27.308,2.518,26.94,2.517,26.656Zm23.658,1.018v-2.41a7.491,7.491,0,0,0,1.51-.693v2.083C27.685,26.939,27.154,27.307,26.175,27.675Zm1.5-4.5c-.055.341-.828.793-2.2,1.218h0a33.788,33.788,0,0,1-8.1,1.21c-.181.008-.361.015-.545.021l-.455.014c-.417.009-.84.016-1.276.016s-.859-.007-1.277-.016c-.152,0-.3-.009-.451-.014-.186-.006-.367-.014-.549-.021a33.787,33.787,0,0,1-8.1-1.21h0c-1.331-.411-2.1-.848-2.2-1.185.15.052.306.1.465.153l.048.015q.2.063.417.121l.163.045.246.063a36.723,36.723,0,0,0,6.7.952h0c.78.046,1.577.075,2.382.085.214,0,.427.006.636.006.277,0,.561,0,.849-.009.734-.012,1.459-.039,2.168-.082h0l.007,0c.863-.052,1.7-.126,2.5-.218l.009,0c.011,0,.02-.006.031-.007.894-.1,1.742-.23,2.528-.378.162-.03.322-.06.48-.092l.106-.022a13.525,13.525,0,0,0,3.656-1.19c.048-.026.094-.053.139-.08s.109-.067.161-.1.1-.061.148-.093C27.372,22.73,27.646,23.047,27.679,23.174Zm.007-6.573v-2.41A7.491,7.491,0,0,0,29.2,13.5v2.083C29.2,15.865,28.664,16.233,27.685,16.6Z" transform="translate(0 -3)"/></svg>