<svg xmlns="http://www.w3.org/2000/svg" width="29.004" height="32.75" viewBox="0 0 29.004 32.75"><defs><style>.a{fill:#fff;}.b{fill:#44c8e1;}</style></defs><g transform="translate(0 0)"><g transform="translate(0 0)"><path class="a" d="M-4948.874-466.416h-.786v-3.794a.6.6,0,0,0-.007-.071.623.623,0,0,0-.153-.416l-6.313-7.213s0,0,0,0a.665.665,0,0,0-.128-.107c-.014-.009-.028-.017-.042-.025a.617.617,0,0,0-.126-.053l-.034-.011a.64.64,0,0,0-.147-.018h-15.519a1.285,1.285,0,0,0-1.284,1.284v10.43h-.786a1.836,1.836,0,0,0-1.836,1.836v9.546a1.836,1.836,0,0,0,1.836,1.836h.786v6.534a1.286,1.286,0,0,0,1.284,1.284h21.191a1.286,1.286,0,0,0,1.284-1.284V-453.2h.786a1.836,1.836,0,0,0,1.836-1.836v-9.546A1.836,1.836,0,0,0-4948.874-466.416Zm-23.262-10.43h14.876v6.571a.643.643,0,0,0,.643.642h5.673v3.217h-21.192Zm21.192,29.834h-21.192V-453.2h21.192v6.187Z" transform="translate(4976.042 478.131)"/></g><g transform="translate(2.529 13.466)"><path class="b" d="M-4859.672,149.375a.123.123,0,0,1,.139-.139H-4856a3.85,3.85,0,0,1,2.1.53,2.866,2.866,0,0,1,1.187,1.6c.038.13.072.267.1.411a5.061,5.061,0,0,1,.083.509q.035.293.049.7c.009.27.014.6.014.99s-.005.72-.014.99-.026.5-.049.7a5.057,5.057,0,0,1-.083.509c-.033.144-.067.281-.1.411a2.866,2.866,0,0,1-1.187,1.6,3.85,3.85,0,0,1-2.1.53h-3.533a.123.123,0,0,1-.139-.139Zm2.053,7.443a.074.074,0,0,0,.083.084h1.075a2.435,2.435,0,0,0,1.145-.231,1.31,1.31,0,0,0,.615-.819,1.325,1.325,0,0,0,.07-.231,3.4,3.4,0,0,0,.049-.343q.021-.21.027-.525t.007-.777q0-.462-.007-.77t-.027-.518a3.414,3.414,0,0,0-.049-.343,1.845,1.845,0,0,0-.07-.245,1.309,1.309,0,0,0-.615-.819,2.434,2.434,0,0,0-1.145-.231h-1.075a.074.074,0,0,0-.083.084Z" transform="translate(4859.672 -149.068)"/><path class="b" d="M-4462.7,151.327a4.052,4.052,0,0,1-2.172-.573,3,3,0,0,1-1.292-1.731,4.432,4.432,0,0,1-.132-.489,4.936,4.936,0,0,1-.077-.531q-.028-.293-.041-.67t-.015-.908q0-.531.015-.908t.041-.67a4.945,4.945,0,0,1,.077-.531,4.444,4.444,0,0,1,.132-.489,3.03,3.03,0,0,1,1.292-1.725,4.018,4.018,0,0,1,2.172-.579,4.017,4.017,0,0,1,2.171.579,3.032,3.032,0,0,1,1.292,1.725,4.338,4.338,0,0,1,.132.489,5.072,5.072,0,0,1,.077.531q.028.293.042.67t.014.908q0,.531-.014.908t-.042.67a5.062,5.062,0,0,1-.077.531,4.326,4.326,0,0,1-.132.489,3,3,0,0,1-1.292,1.731A4.052,4.052,0,0,1-4462.7,151.327Zm0-1.815a1.576,1.576,0,0,0,.963-.279,1.472,1.472,0,0,0,.53-.768,2.118,2.118,0,0,0,.071-.286c.018-.107.034-.237.048-.391s.023-.342.028-.566.007-.489.007-.8,0-.572-.007-.8-.014-.412-.028-.566-.03-.284-.048-.391a2.128,2.128,0,0,0-.071-.286,1.473,1.473,0,0,0-.53-.768,1.577,1.577,0,0,0-.963-.279,1.579,1.579,0,0,0-.964.279,1.473,1.473,0,0,0-.53.768,2.132,2.132,0,0,0-.07.286c-.019.107-.034.237-.048.391s-.023.342-.028.566-.007.489-.007.8,0,.573.007.8.014.412.028.566.03.284.048.391a2.122,2.122,0,0,0,.07.286,1.472,1.472,0,0,0,.53.768A1.577,1.577,0,0,0-4462.7,149.512Z" transform="translate(4474.976 -141.525)"/><path class="b" d="M-4062.642,149a3.128,3.128,0,0,1-.133-.454,4.543,4.543,0,0,1-.077-.517c-.019-.191-.033-.414-.042-.67s-.014-.566-.014-.929,0-.672.014-.929.023-.479.042-.67a4.268,4.268,0,0,1,.077-.51,3.858,3.858,0,0,1,.133-.461,3.183,3.183,0,0,1,1.25-1.752,3.765,3.765,0,0,1,2.129-.579,3.689,3.689,0,0,1,2.06.552,3.258,3.258,0,0,1,1.25,1.557q.07.126-.07.168l-1.522.684q-.126.07-.2-.07a2.061,2.061,0,0,0-.552-.768,1.414,1.414,0,0,0-.957-.307,1.437,1.437,0,0,0-.914.279,1.525,1.525,0,0,0-.51.768,2.077,2.077,0,0,0-.07.272q-.028.147-.049.37c-.014.149-.024.335-.028.559s-.007.5-.007.838,0,.614.007.838.014.41.028.559.03.272.049.37a2.076,2.076,0,0,0,.07.272,1.523,1.523,0,0,0,.51.768,1.436,1.436,0,0,0,.914.279,1.414,1.414,0,0,0,.957-.307,2.059,2.059,0,0,0,.552-.768q.07-.139.2-.07l1.522.684q.14.042.07.168a3.257,3.257,0,0,1-1.25,1.557,3.687,3.687,0,0,1-2.06.552,3.764,3.764,0,0,1-2.129-.58A3.182,3.182,0,0,1-4062.642,149Z" transform="translate(4080.222 -141.525)"/></g></g></svg>