<svg xmlns="http://www.w3.org/2000/svg" width="41.25" height="44" viewBox="0 0 41.25 44"><defs><style>.a{fill:#5390d6;}</style></defs><g transform="translate(-16)"><path class="a" d="M136,332h7.734v2.578H136Z" transform="translate(-109.688 -303.469)"/><path class="a" d="M136,271h20.625v2.578H136Z" transform="translate(-109.688 -247.711)"/><path class="a" d="M136,211h20.625v2.578H136Z" transform="translate(-109.688 -192.867)"/><path class="a" d="M136,150h20.625v2.578H136Z" transform="translate(-109.688 -137.109)"/><path class="a" d="M256,90h7.734v2.578H256Z" transform="translate(-219.375 -82.266)"/><path class="a" d="M57.25,31.109H52.094V0H29.646L21.156,8.489v22.62H16V44H57.25Zm-2.578,2.578v2.578H52.094V33.688Zm-5.156,2.578H23.734V10.313h7.734V2.578H49.516ZM25.558,7.734,28.891,4.4V7.734Zm-4.4,25.953v2.578H18.578V33.688Zm-2.578,7.734V38.844H54.672v2.578Z"/></g></svg>