<svg xmlns="http://www.w3.org/2000/svg" width="20.948" height="24.663" viewBox="0 0 20.948 24.663"><defs><style>.a{fill:#78a2e0;}</style></defs><g transform="translate(-38.937)"><g transform="translate(42.518 1.673)"><path class="a" d="M114.716,56.148h13.071c1.745,0,1.67.156,1.67-1.67v-18.7a.716.716,0,1,0-1.431,0v18.7a.239.239,0,0,1-.239.239H114.716a.716.716,0,0,0,0,1.431Z" transform="translate(-114 -35.063)"/><path class="a" d="M130.712,75a.716.716,0,0,0-.716.716V93.939a.671.671,0,0,1-.716.716h-14.5a.716.716,0,0,0,0,1.431h14.979a1.672,1.672,0,0,0,1.67-1.67v-18.7A.716.716,0,0,0,130.712,75Z" transform="translate(-114.06 -73.095)"/></g><g transform="translate(38.937)"><rect class="a" width="3" height="3" transform="translate(3.961 4.663)"/><path class="a" d="M54.393,0H40.368a1.433,1.433,0,0,0-1.431,1.431V19.177a1.433,1.433,0,0,0,1.431,1.431H54.393a1.433,1.433,0,0,0,1.431-1.431V1.431A1.433,1.433,0,0,0,54.393,0ZM49.337,3.53h3.339a.477.477,0,0,1,0,.954H49.337a.477.477,0,1,1,0-.954Zm0,2.29h3.339a.477.477,0,0,1,0,.954H49.337a.477.477,0,1,1,0-.954Zm0,2.29h3.339a.477.477,0,0,1,0,.954H49.337a.477.477,0,1,1,0-.954ZM45.13,15.547l-1.605,1.605a.477.477,0,0,1-.675,0l-.927-.927a.477.477,0,1,1,.675-.675l.59.59,1.268-1.268a.477.477,0,0,1,.675.675Zm0-3.643L43.525,13.51a.477.477,0,0,1-.675,0l-.927-.927a.477.477,0,1,1,.675-.675l.59.59,1.268-1.268a.477.477,0,0,1,.675.675ZM42.085,9.064a.477.477,0,0,1-.477-.477V4.007a.477.477,0,0,1,.477-.477h4.58a.477.477,0,0,1,.477.477v4.58a.477.477,0,0,1-.477.477Zm10.861,7.394H47.381a.477.477,0,1,1,0-.954h5.566a.477.477,0,0,1,0,.954Zm0-3.626H47.381a.477.477,0,1,1,0-.954h5.566a.477.477,0,0,1,0,.954Z" transform="translate(-38.937)"/></g></g></svg>