<svg xmlns="http://www.w3.org/2000/svg" width="102.702" height="103.418" viewBox="0 0 102.702 103.418"><defs><style>.a{fill:#e9eaeb;}.b{fill:#fff;}.c{fill:#2a5082;}.d{fill:#a3d4ff;}</style></defs><g transform="translate(-1265.912 -595.813)"><g transform="translate(1211.021 595.813)"><g transform="translate(72.6 4.257)"><ellipse class="a" cx="42.497" cy="42.497" rx="42.497" ry="42.497"/></g><g transform="translate(56.663 52.066)"><rect class="b" width="74.369" height="49.579"/></g><g transform="translate(54.891 50.297)"><path class="c" d="M100.552,73.866H22.64V20.745H86.388v3.54H26.182V70.324h70.83V41.993h3.54Z" transform="translate(-22.64 -20.745)"/></g><g transform="translate(83.224 50.297)"><rect class="a" width="19.479" height="8.854" transform="translate(1.77 1.77)"/><path class="c" d="M57.344,33.139H34.326V20.745H57.344ZM37.868,29.6H53.8V24.285H37.868V29.6Z" transform="translate(-34.326 -20.745)"/></g><g transform="translate(63.745 92.793)"><rect class="c" width="3.542" height="3.542"/></g><g transform="translate(70.827 92.793)"><rect class="c" width="3.542" height="3.542"/></g><g transform="translate(77.912 92.793)"><rect class="c" width="3.542" height="3.542"/></g><g transform="translate(68.051)"><path class="d" d="M62.943,11.617H55.776v-8.6L54.244,1.049,29.213,22.242,54.132,42.4l1.641-1.969V32.866h6.755c10.811,0,20.264,7.288,20.264,18.1S73.751,71.821,62.94,71.821H61.088v1.77h1.855c18.882,0,33.085-9.9,33.085-28.781S81.825,11.617,62.943,11.617Z" transform="translate(-26.437 1.494)"/><path class="c" d="M64.574,76.857H60.947V71.545h3.627c9.633,0,18.08-8.917,18.08-19.086,0-9.31-7.95-16.329-18.494-16.329H59.174v6.435L56,46.366l-27.935-22.6L56.139,0l3.038,3.9v7.436h5.4c19.871,0,34.855,15.032,34.855,34.964C99.429,64.863,85.747,76.857,64.574,76.857ZM55.635,32.588h8.525c12.358,0,22.036,8.728,22.036,19.871a23.346,23.346,0,0,1-11.424,19.76C88.021,69.15,95.886,59.8,95.886,46.3c0-17.915-13.461-31.422-31.315-31.422H55.632l-.027-9.8L33.618,23.7l21.9,17.716.114-.136v-8.7Z" transform="translate(-28.068)"/></g></g></g></svg>