<svg xmlns="http://www.w3.org/2000/svg" width="132.803" height="102.224" viewBox="0 0 132.803 102.224"><defs><style>.a{fill:#e9eaeb;}.b{fill:#fff;}.c{fill:#2a5082;}.d{fill:#a3d4ff;}</style></defs><g transform="translate(-715.021 -597.006)"><g transform="translate(715.021 595.813)"><g transform="translate(0 1.194)"><ellipse class="a" cx="42.497" cy="42.497" rx="42.497" ry="42.497"/></g><g transform="translate(56.663 52.066)"><rect class="b" width="74.369" height="49.579"/></g><g transform="translate(54.891 50.297)"><path class="c" d="M22.64,73.866h77.912V20.745H41.8v3.54H97.009V70.324H26.18V51.993H22.64Z" transform="translate(-22.64 -20.745)"/></g><g transform="translate(83.224 50.297)"><rect class="a" width="19.479" height="8.854" transform="translate(1.77 1.77)"/><path class="c" d="M57.344,33.139H34.326V20.745H57.344ZM37.868,29.6H53.8V24.285H37.868V29.6Z" transform="translate(-34.326 -20.745)"/></g><g transform="translate(63.745 92.793)"><rect class="c" width="3.542" height="3.542"/></g><g transform="translate(70.827 92.793)"><rect class="c" width="3.542" height="3.542"/></g><g transform="translate(77.912 92.793)"><rect class="c" width="3.542" height="3.542"/></g><g transform="translate(7.557 6.506)"><path class="d" d="M36.932,73.224H44.1v8.6l1.532,1.969L70.659,62.6,45.74,42.442,44.1,44.411v7.564H37.344c-10.811,0-20.264-7.288-20.264-18.1s9.041-20.856,19.852-20.856h1.855v-1.77H36.932c-18.882,0-33.085,9.9-33.085,28.781S18.05,73.224,36.932,73.224Z" transform="translate(-2.077 -9.479)"/><path class="c" d="M46.407,87.377l-3.038-3.9V76.038h-5.4C18.1,76.038,3.117,61.006,3.117,41.074c0-18.56,13.682-30.554,34.855-30.554H41.6v5.312H37.972c-9.633,0-18.08,8.917-18.08,19.086,0,9.31,7.95,16.329,18.494,16.329h4.985V44.812l3.171-3.8L74.48,63.61Zm.5-5.121.027.034L68.925,63.673l-21.9-17.716-.114.136v8.694H38.389c-12.358,0-22.036-8.728-22.036-19.871a23.346,23.346,0,0,1,11.424-19.76C14.527,18.225,6.662,27.579,6.662,41.071c0,17.915,13.461,31.422,31.315,31.422h8.939v9.764Z" transform="translate(-3.117 -10.52)"/></g></g></g></svg>