<svg xmlns="http://www.w3.org/2000/svg" width="21.664" height="21.664" viewBox="0 0 21.664 21.664"><defs><style>.a{fill:#5390d6;}</style></defs><g transform="translate(588.799 -0.004)"><g transform="translate(-585.549 6.865)"><g transform="translate(0)"><circle class="a" cx="0.722" cy="0.722" r="0.722"/></g></g><g transform="translate(-586.271 10.475)"><g transform="translate(0)"><path class="a" d="M-526.556,247.479h-2.095a.383.383,0,0,0-.4.367v1.524a3.945,3.945,0,0,0,1.444.276,3.946,3.946,0,0,0,1.444-.276v-1.524A.383.383,0,0,0-526.556,247.479Z" transform="translate(529.048 -247.479)"/></g></g><g transform="translate(-576.883 2.171)"><g transform="translate(0)"><circle class="a" cx="0.722" cy="0.722" r="0.722"/></g></g><g transform="translate(-577.605 5.781)"><g transform="translate(0)"><path class="a" d="M-321.756,136.546h-2.095a.383.383,0,0,0-.4.367v1.524a3.945,3.945,0,0,0,1.444.276,3.946,3.946,0,0,0,1.444-.276v-1.524A.383.383,0,0,0-321.756,136.546Z" transform="translate(324.248 -136.546)"/></g></g><g transform="translate(-572.19 11.558)"><g transform="translate(0)"><circle class="a" cx="0.722" cy="0.722" r="0.722"/></g></g><g transform="translate(-572.912 15.169)"><g transform="translate(0)"><path class="a" d="M-210.823,358.413h-2.095a.383.383,0,0,0-.4.367V360.3a3.945,3.945,0,0,0,1.444.276,3.945,3.945,0,0,0,1.444-.276V358.78A.383.383,0,0,0-210.823,358.413Z" transform="translate(213.315 -358.413)"/></g></g><g transform="translate(-588.799 0.004)"><g transform="translate(0 0)"><path class="a" d="M-571.467,9.392c-.048,0-.1.005-.143.007l-1.531-2.852a3.943,3.943,0,0,0,.941-2.362l2.271,1.1a1.429,1.429,0,0,0-.094.5,1.446,1.446,0,0,0,1.444,1.444,1.446,1.446,0,0,0,1.444-1.444,1.446,1.446,0,0,0-1.444-1.444,1.43,1.43,0,0,0-.928.347l-2.736-1.321A3.975,3.975,0,0,0-576.918.074a3.962,3.962,0,0,0-3.142,3.132,4.159,4.159,0,0,0-.068.6l-2.14,1.831a3.951,3.951,0,0,0-2.2-.92V2.841a1.443,1.443,0,0,0,1.083-1.393A1.446,1.446,0,0,0-584.827,0a1.446,1.446,0,0,0-1.444,1.444,1.443,1.443,0,0,0,1.083,1.393V4.716A3.976,3.976,0,0,0-588.8,8.669a3.97,3.97,0,0,0,1.805,3.325V10.842a1.106,1.106,0,0,1,1.119-1.089h2.095a1.106,1.106,0,0,1,1.119,1.089v1.152a3.976,3.976,0,0,0,1.738-2.638l1.63,1.27a1.435,1.435,0,0,0-.118.57,1.446,1.446,0,0,0,1.444,1.444,1.446,1.446,0,0,0,1.444-1.444,1.446,1.446,0,0,0-1.444-1.444,1.431,1.431,0,0,0-.879.307l-2.019-1.573a3.949,3.949,0,0,0-.894-2.335l1.693-1.449a3.981,3.981,0,0,0,1.737,2.6V6.148a1.106,1.106,0,0,1,1.119-1.089h2.095A1.105,1.105,0,0,1-574,6.148v.378a.367.367,0,0,0,.2.328l1.42,2.646a3.976,3.976,0,0,0-3.067,3.864,3.931,3.931,0,0,0,.22,1.279l-1.462,1.1a3.972,3.972,0,0,0-3.452-2.015,3.975,3.975,0,0,0-3.953,3.611h-1.875a1.443,1.443,0,0,0-1.393-1.083A1.446,1.446,0,0,0-588.8,17.7a1.446,1.446,0,0,0,1.444,1.444,1.443,1.443,0,0,0,1.393-1.083h1.88a3.97,3.97,0,0,0,1.782,2.964V19.868a1.106,1.106,0,0,1,1.119-1.089h2.095a1.105,1.105,0,0,1,1.119,1.089v1.152a3.98,3.98,0,0,0,1.7-2.439l2.366,1.143a1.428,1.428,0,0,0-.094.5,1.446,1.446,0,0,0,1.444,1.444,1.446,1.446,0,0,0,1.444-1.444,1.446,1.446,0,0,0-1.444-1.444,1.431,1.431,0,0,0-.928.347l-2.691-1.3c0-.044.008-.086.008-.13a3.948,3.948,0,0,0-.216-1.282l1.459-1.094a4.009,4.009,0,0,0,1.285,1.368V15.535a1.106,1.106,0,0,1,1.119-1.089h2.095a1.105,1.105,0,0,1,1.119,1.089v1.152a3.97,3.97,0,0,0,1.805-3.325A3.976,3.976,0,0,0-571.467,9.392Zm-13.359-.361a1.446,1.446,0,0,1-1.444-1.444,1.446,1.446,0,0,1,1.444-1.444,1.446,1.446,0,0,1,1.444,1.444A1.446,1.446,0,0,1-584.827,9.031Zm8.665-4.694a1.446,1.446,0,0,1-1.444-1.444,1.446,1.446,0,0,1,1.444-1.444,1.446,1.446,0,0,1,1.444,1.444A1.446,1.446,0,0,1-576.161,4.337Zm-3.972,13.72a1.446,1.446,0,0,1-1.444-1.444,1.446,1.446,0,0,1,1.444-1.444,1.446,1.446,0,0,1,1.444,1.444A1.446,1.446,0,0,1-580.133,18.057Zm8.665-4.333a1.446,1.446,0,0,1-1.444-1.444,1.446,1.446,0,0,1,1.444-1.444,1.446,1.446,0,0,1,1.444,1.444A1.446,1.446,0,0,1-571.467,13.725Z" transform="translate(588.799 -0.004)"/></g></g><g transform="translate(-580.855 15.891)"><g transform="translate(0)"><circle class="a" cx="0.722" cy="0.722" r="0.722"/></g></g><g transform="translate(-581.577 19.502)"><g transform="translate(0)"><path class="a" d="M-415.623,460.813h-2.095a.383.383,0,0,0-.4.367V462.7a3.944,3.944,0,0,0,1.444.276,3.946,3.946,0,0,0,1.444-.276V461.18A.383.383,0,0,0-415.623,460.813Z" transform="translate(418.115 -460.813)"/></g></g></g></svg>