<svg xmlns="http://www.w3.org/2000/svg" width="28.882" height="32.612" viewBox="0 0 28.882 32.612"><defs><style>.a{fill:#fff;}</style></defs><path class="a" d="M119.414,259.943c0-.878-.61-1.4-1.686-1.4a3.686,3.686,0,0,0-.892.085v2.82a3.342,3.342,0,0,0,.722.056C118.706,261.5,119.414,260.921,119.414,259.943Z" transform="translate(-111.784 -243.233)"/><path class="a" d="M257.334,259.019a4.5,4.5,0,0,0-.978.085v6.248a3.924,3.924,0,0,0,.751.043c1.955.014,3.23-1.063,3.23-3.344A2.739,2.739,0,0,0,257.334,259.019Z" transform="translate(-243.043 -243.683)"/><path class="a" d="M58.558,11.665h-.783V7.887a.552.552,0,0,0-.007-.071.628.628,0,0,0-.152-.414L51.328.219l-.005,0A.635.635,0,0,0,51.2.107C51.182.1,51.169.091,51.154.083A.659.659,0,0,0,51.028.03L50.994.018A.638.638,0,0,0,50.847,0H35.394a1.28,1.28,0,0,0-1.279,1.279V11.665h-.783A1.828,1.828,0,0,0,31.5,13.493V23a1.828,1.828,0,0,0,1.828,1.828h.783v6.507a1.28,1.28,0,0,0,1.279,1.279H56.5a1.281,1.281,0,0,0,1.279-1.279V24.826h.783A1.828,1.828,0,0,0,60.386,23V13.493A1.828,1.828,0,0,0,58.558,11.665ZM35.394,1.279H50.207V7.823a.64.64,0,0,0,.639.639H56.5v3.2h-21.1ZM51.094,18.3a4.84,4.84,0,0,1-1.588,3.868A6.851,6.851,0,0,1,45.1,23.4a18.771,18.771,0,0,1-2.451-.141v-9.38a19.321,19.321,0,0,1,2.919-.2,6.148,6.148,0,0,1,3.91,1.02A4.226,4.226,0,0,1,51.094,18.3Zm-16.677,5V13.877a17.749,17.749,0,0,1,2.919-.2,4.578,4.578,0,0,1,2.918.765,2.79,2.79,0,0,1,1.019,2.21,3.048,3.048,0,0,1-.878,2.267,4.427,4.427,0,0,1-3.1,1.006,5.407,5.407,0,0,1-.736-.043V23.3H34.417ZM56.5,30.987h-21.1V24.826H56.5v6.161ZM58.349,15.52h-3.67V17.7h3.429v1.757H54.679V23.3H52.512V13.749h5.837Z" transform="translate(-31.504)"/></svg>