<svg xmlns="http://www.w3.org/2000/svg" width="22.271" height="18.742" viewBox="0 0 22.271 18.742"><defs><style>.a{fill:#78a2e0;}</style></defs><g transform="translate(0 -6.348)"><path class="a" d="M13.439,9.565a4.047,4.047,0,0,1,1.883,3.006,3.265,3.265,0,1,0-1.883-3.006ZM11.3,16.252a3.266,3.266,0,1,0-3.267-3.266A3.266,3.266,0,0,0,11.3,16.252Zm1.385.223H9.914a4.187,4.187,0,0,0-4.182,4.182v3.389l.009.053.233.073a19.036,19.036,0,0,0,5.686.917,11.674,11.674,0,0,0,4.965-.932l.218-.11h.023v-3.39A4.186,4.186,0,0,0,12.685,16.475Zm5.4-3.372h-2.75a4.025,4.025,0,0,1-1.242,2.8,4.969,4.969,0,0,1,3.549,4.755v1.044a11.254,11.254,0,0,0,4.383-.921l.218-.111h.023V17.285A4.187,4.187,0,0,0,18.089,13.1ZM5.568,12.881a3.245,3.245,0,0,0,1.737-.5A4.042,4.042,0,0,1,8.825,9.8c0-.061.009-.122.009-.183a3.266,3.266,0,1,0-3.266,3.266ZM8.5,15.907A4.028,4.028,0,0,1,7.26,13.119c-.1-.008-.2-.016-.307-.016H4.182A4.187,4.187,0,0,0,0,17.285v3.39l.009.052.233.074a19.608,19.608,0,0,0,4.71.885V20.662A4.97,4.97,0,0,1,8.5,15.907Z"/></g></svg>