<svg xmlns="http://www.w3.org/2000/svg" width="149.624" height="109.902" viewBox="0 0 149.624 109.902"><defs><style>.a{fill:#e9eaeb;}.b{fill:#bcc0c4;}.c{fill:#fff;}.d{fill:#b2d9ff;}.e{fill:#36598d;}</style></defs><g transform="translate(-162.696 -595)"><g transform="translate(162.696 594.911)"><g transform="translate(0 0.089)"><g transform="translate(28.313)"><g transform="translate(-0.008 0)"><ellipse class="a" cx="51.5" cy="52" rx="51.5" ry="52" transform="translate(0)"/></g></g><g transform="translate(0 19.23)"><path class="b" d="M74.61,23.956H50.166l-.613-1.392a4.77,4.77,0,0,0-4.122-2.882,3.211,3.211,0,0,0-1.655.256l-2.213.891-.839-2.236a8.737,8.737,0,0,0-8.135-5.656c-4.791,0-8.69,5.26-8.7,8.692l-.007,2.327H0V19.293H19.506c1.259-5.44,6.629-11.019,13.08-11.019A13.43,13.43,0,0,1,44.211,15.08c.389-.044.9-.042,1.219-.063a9.3,9.3,0,0,1,7.629,4.274H74.61Z" transform="translate(0 -8.274)"/></g><g transform="translate(81.605 16.239)"><path class="b" d="M93.289,21H82.8l-.692-1.049c-.921-1.4-3.308-3.658-6.326-3.29l-1.525.184-.772-1.329a7.427,7.427,0,0,0-6.284-3.866,7.508,7.508,0,0,0-7.293,7.039L59.889,21H35V16.338H55.527A12.327,12.327,0,0,1,67.206,6.991a11.974,11.974,0,0,1,9.52,4.973,11.7,11.7,0,0,1,8.5,4.374h8.063Z" transform="translate(-35 -6.991)"/></g></g></g><g transform="translate(-4031 93)"><path class="c" d="M4281.732,607.039v9.1h-37.287v-9.1Z" transform="translate(-0.121 -6.074)"/><path class="c" d="M4339.488,602.536l-3.715,9.579h-35.364l-9.468-27.628h4.2V564.241h45.378v20.245h4.282Z" transform="translate(-4.027 -2.478)"/><rect class="d" width="21" height="9" transform="translate(4315 562)"/><rect class="d" width="21" height="9" transform="translate(4292 562)"/><path class="e" d="M5225.751,79.692h-5l-4.547-7.876a1.578,1.578,0,0,0,.026-.254V50.483L5244.6,20.955v9.682l-10.847,10.588-.006.007a1.622,1.622,0,0,0-.18.216l-.025.03a1.575,1.575,0,0,0-.147.275,1.5,1.5,0,0,0-.093.3c0,.018,0,.039-.007.057a1.659,1.659,0,0,0-.024.259l0,.009V60.655a24.846,24.846,0,0,1-2.932.129,1.6,1.6,0,0,0-1.6,2.119l7.61,22.428a1.606,1.606,0,0,0,1.52,1.09,1.58,1.58,0,0,0,.515-.086,1.608,1.608,0,0,0,1.006-2.037l-6.9-20.345a47.51,47.51,0,0,0,23.776-8.542V82.374a1.606,1.606,0,1,0,3.211,0V55.411a47.508,47.508,0,0,0,23.775,8.542l-5.4,15.935a1.606,1.606,0,1,0,3.041,1.033l6.111-18.017a1.6,1.6,0,0,0-1.6-2.119,26.2,26.2,0,0,1-3.259-.164V42.375a1.607,1.607,0,0,0-1.605-1.606h-22.023l-10.69-10.145V16.965c0-.027-.007-.052-.009-.082a1.236,1.236,0,0,0-.019-.186c-.007-.043-.018-.086-.027-.127s-.032-.109-.05-.161-.034-.086-.052-.127-.05-.093-.078-.141-.05-.082-.08-.12c-.012-.016-.021-.034-.031-.05s-.046-.045-.069-.07-.062-.07-.1-.1-.083-.07-.125-.1a1.328,1.328,0,0,0-.112-.082,1.556,1.556,0,0,0-.145-.079c-.041-.018-.078-.041-.118-.057a1.817,1.817,0,0,0-.182-.057c-.035-.009-.069-.02-.1-.027a1.531,1.531,0,0,0-.3-.032h0l-.044,0a1.581,1.581,0,0,0-.254.025c-.04.007-.076.02-.112.03a1.547,1.547,0,0,0-.175.055c-.045.018-.086.039-.128.059s-.067.03-.1.048l-28.537,16.807-7.6-13.161a1.605,1.605,0,0,0-2.782,0l-8.408,14.565a1.595,1.595,0,0,0,1.305,2.4V71.561a1.566,1.566,0,0,0,.062.411l-4.458,7.72h-6.606a1.607,1.607,0,0,0-1.606,1.606v9.614a1.607,1.607,0,0,0,1.606,1.606H5213.8V89.306h-23.822V82.9h34.17v6.4h-4.315v3.211h5.921a1.606,1.606,0,0,0,1.605-1.606V81.3A1.606,1.606,0,0,0,5225.751,79.692Zm-16.277-19.543V36.2h3.549V66.3Zm36.751-26.607,7.613,7.227h-15.017Zm-9.744,10.438h19.454v6.65h-19.454Zm0,9.861H5252.8a45.855,45.855,0,0,1-16.317,6.371Zm26.448,0h15.994v6.312A45.909,45.909,0,0,1,5262.929,53.842Zm15.994-9.861v6.65H5259.47V43.98Zm-62.688,1.867V36.2h.054c.033,0,.068-.009.1-.011a1,1,0,0,0,.143-.014,1.664,1.664,0,0,0,.216-.05l.066-.02a1.662,1.662,0,0,0,.273-.125l0,0v0c.036-.02.074-.039.111-.064l19.756-11.633Zm-8.367-22.61,5.625,9.748h-11.254ZM5202.584,36.2h3.678V60.149l-3.678,6.366Zm5.283,27.592,9.182,15.9h-18.364Z" transform="translate(-943.759 519.385)"/></g></g></svg>