<svg xmlns="http://www.w3.org/2000/svg" width="36.654" height="36.656" viewBox="0 0 36.654 36.656"><defs><style>.a{fill:#fff;}</style></defs><g transform="translate(-0.001 0)"><path class="a" d="M36.5,1.105A1.074,1.074,0,0,0,35.55.157C27.052-.787,19.807,2.612,13.9,8.7a44.3,44.3,0,0,0-4.41,5.362A8.527,8.527,0,0,0,3.354,16.6L.316,19.633a1.074,1.074,0,0,0,1.038,1.8A14.959,14.959,0,0,1,4.3,20.97a8.289,8.289,0,0,1,1.014.008c-.67,1.289-1.184,2.369-1.354,2.64a1.074,1.074,0,0,0,.15,1.332l1.758,1.758c-2.558,3.489-2.6,5.276-2.591,5.529a1.079,1.079,0,0,0,1.129,1.038c.6,0,2.319-.255,5.45-2.579l1.849,1.849a1.075,1.075,0,0,0,1.34.144c.289-.186,1.306-.678,2.525-1.315a26.228,26.228,0,0,1-.371,4.051,1.075,1.075,0,0,0,1.822.917L20.061,33.3a8.483,8.483,0,0,0,2.408-6.075,44.349,44.349,0,0,0,5.642-4.638C34.136,16.681,37.431,9.491,36.5,1.105ZM34.445,2.211A21.446,21.446,0,0,1,33.9,8.943a9.457,9.457,0,0,1-3.785-2.4,9.447,9.447,0,0,1-2.408-3.8A21.653,21.653,0,0,1,34.445,2.211ZM4.164,18.823l.709-.709a6.782,6.782,0,0,1,3.081-1.752c-.579.919-1.1,1.8-1.551,2.607A8.627,8.627,0,0,0,4.164,18.823ZM6.2,23.995c.232-.459.513-1.034,1.029-2.009L8.639,23.4q-.789.847-1.429,1.609Zm5.252-.411a3.176,3.176,0,0,1,2.465-.945,3.212,3.212,0,0,1-.946,2.464A27.781,27.781,0,0,1,5.98,30.59,27.512,27.512,0,0,1,11.448,23.584Zm1.208,6.871-1.107-1.108q.759-.644,1.6-1.434l1.5,1.5C13.668,29.946,13.255,30.145,12.656,30.454Zm5.886,1.33-.86.86a10.48,10.48,0,0,0-.053-2.386c.79-.445,1.647-.949,2.546-1.513A6.334,6.334,0,0,1,18.542,31.784Zm-1.93-3.449L14.687,26.41c1.425-1.568,1.372-3.079,1.372-4.844a1.074,1.074,0,0,0-1.074-1.074c-1.649,0-3.236-.088-4.844,1.372L8.3,20.025c5.021-8.8,10.825-14.379,17.346-16.675A11.567,11.567,0,0,0,28.6,8.059,11.573,11.573,0,0,0,33.284,11C30.975,17.486,25.4,23.286,16.612,28.335Z" transform="translate(0 0)"/><path class="a" d="M259.358,113.4a5.37,5.37,0,1,0,0,7.594A5.376,5.376,0,0,0,259.358,113.4Zm-1.519,6.075a3.222,3.222,0,1,1,0-4.557A3.226,3.226,0,0,1,257.839,119.479Z" transform="translate(-232.28 -103.827)"/></g></svg>