<svg xmlns="http://www.w3.org/2000/svg" width="19.96" height="19.757" viewBox="0 0 19.96 19.757"><defs><style>.a{fill:#88aae4;}</style></defs><g transform="translate(-168.001 -23.737)"><path class="a" d="M169.311,30.949a4.86,4.86,0,0,0,.435,1.032l-.525.662a.543.543,0,0,0,.041.719l.9.9a.541.541,0,0,0,.719.041l.657-.52a4.776,4.776,0,0,0,1.073.454l.1.846a.542.542,0,0,0,.537.48h1.278a.542.542,0,0,0,.537-.48l.094-.816a4.831,4.831,0,0,0,1.15-.465l.636.5a.543.543,0,0,0,.719-.041l.9-.9a.541.541,0,0,0,.041-.719l-.495-.627a4.718,4.718,0,0,0,.473-1.131l.762-.088a.542.542,0,0,0,.48-.537V28.983a.542.542,0,0,0-.48-.537l-.752-.088a4.749,4.749,0,0,0-.454-1.118l.462-.585a.543.543,0,0,0-.041-.719l-.9-.9a.541.541,0,0,0-.719-.041l-.567.45a4.765,4.765,0,0,0-1.176-.492l-.086-.734a.542.542,0,0,0-.537-.48H173.3a.542.542,0,0,0-.537.48l-.086.734a4.746,4.746,0,0,0-1.206.51l-.589-.467a.543.543,0,0,0-.719.041l-.9.9a.541.541,0,0,0-.041.719l.492.623a4.659,4.659,0,0,0-.445,1.128l-.788.09a.542.542,0,0,0-.48.537v1.278a.542.542,0,0,0,.48.537Zm4.632-3.458A2.113,2.113,0,1,1,171.83,29.6,2.116,2.116,0,0,1,173.943,27.491Z"/><path class="a" d="M654.266,308.225l-.674-.57a.534.534,0,0,0-.711.019l-.373.349a3.853,3.853,0,0,0-.994-.321l-.1-.514a.538.538,0,0,0-.57-.428l-.88.075a.536.536,0,0,0-.49.516l-.017.522a3.861,3.861,0,0,0-.949.5l-.445-.3a.535.535,0,0,0-.7.1l-.57.679a.533.533,0,0,0,.019.711l.39.415a3.99,3.99,0,0,0-.287.951l-.557.113a.539.539,0,0,0-.428.57l.075.88a.536.536,0,0,0,.516.49l.6.019a3.934,3.934,0,0,0,.426.814l-.336.507a.535.535,0,0,0,.1.7l.675.57a.533.533,0,0,0,.711-.019l.441-.413a3.865,3.865,0,0,0,.906.3l.122.6a.539.539,0,0,0,.57.428l.88-.075a.536.536,0,0,0,.49-.516l.019-.591a3.959,3.959,0,0,0,.906-.458l.486.321a.535.535,0,0,0,.7-.1l.57-.674a.534.534,0,0,0-.019-.711l-.392-.415a3.857,3.857,0,0,0,.308-.955l.535-.109a.538.538,0,0,0,.428-.57l-.075-.88a.536.536,0,0,0-.516-.49l-.537-.017a3.886,3.886,0,0,0-.448-.882l.293-.441A.532.532,0,0,0,654.266,308.225Zm-3.317,5.088a1.73,1.73,0,1,1,1.578-1.869A1.73,1.73,0,0,1,650.949,313.313Z" transform="translate(-467.686 -276.962)"/><path class="a" d="M350.783,580.854a.535.535,0,0,0-.48.527l-.006.542a.534.534,0,0,0,.467.537l.4.051a3.091,3.091,0,0,0,.283.692l-.257.317a.534.534,0,0,0,.032.711l.379.388a.535.535,0,0,0,.711.049l.319-.246a3.129,3.129,0,0,0,.711.311l.043.411a.535.535,0,0,0,.527.48l.542.006a.534.534,0,0,0,.537-.467l.049-.39a3.215,3.215,0,0,0,.771-.3l.3.242a.534.534,0,0,0,.711-.032l.388-.379a.535.535,0,0,0,.049-.711l-.229-.3a3.1,3.1,0,0,0,.326-.75l.355-.036a.535.535,0,0,0,.48-.527l.006-.542a.534.534,0,0,0-.467-.537l-.347-.045a3.228,3.228,0,0,0-.293-.749l.216-.265a.534.534,0,0,0-.032-.711l-.379-.388a.534.534,0,0,0-.711-.049l-.259.2a3.147,3.147,0,0,0-.779-.338l-.034-.336a.535.535,0,0,0-.527-.48l-.542-.006a.534.534,0,0,0-.537.467l-.043.334a3.233,3.233,0,0,0-.807.33l-.268-.218a.534.534,0,0,0-.711.032l-.39.381a.535.535,0,0,0-.049.711l.229.3a3.136,3.136,0,0,0-.306.749Zm3.5-.612a1.409,1.409,0,1,1-1.426,1.392A1.41,1.41,0,0,1,354.28,580.241Z" transform="translate(-178.392 -542.135)"/></g></svg>