<svg xmlns="http://www.w3.org/2000/svg" width="23.654" height="23.654" viewBox="0 0 23.654 23.654"><defs><style>.a{fill:#5390d6;}</style></defs><path class="a" d="M33.079,11.088a2.068,2.068,0,0,0,1.439-.585l2.051,1.026a2.032,2.032,0,0,0-.025.252,2.079,2.079,0,0,0,4.158,0,2.053,2.053,0,0,0-.208-.891l2.783-2.783a2.053,2.053,0,0,0,.891.208,2.081,2.081,0,0,0,2.079-2.079,2.048,2.048,0,0,0-.1-.616L48.56,3.808a2.078,2.078,0,1,0-.928-1.729,2.048,2.048,0,0,0,.1.616L45.318,4.508A2.07,2.07,0,0,0,42.3,7.128L39.514,9.91a2.043,2.043,0,0,0-2.33.376L35.133,9.261a2.032,2.032,0,0,0,.025-.252,2.079,2.079,0,1,0-2.079,2.079Z" transform="translate(-29.568)"/><path class="a" d="M22.961,165.338h-.739V150.693a.693.693,0,0,0-.693-.693H18.757a.693.693,0,0,0-.693.693v14.645H16.678V154.851a.693.693,0,0,0-.693-.693H13.213a.693.693,0,0,0-.693.693v10.487H11.134v-4.943a.693.693,0,0,0-.693-.693H7.669a.693.693,0,0,0-.693.693v4.943H5.59v-7.715a.693.693,0,0,0-.693-.693H2.125a.693.693,0,0,0-.693.693v7.715H.693a.693.693,0,1,0,0,1.386H22.961a.693.693,0,1,0,0-1.386Z" transform="translate(0 -143.07)"/></svg>