<svg xmlns="http://www.w3.org/2000/svg" width="39.892" height="27.182" viewBox="0 0 39.892 27.182"><defs><style>.a{fill:#5390d6;}</style></defs><g transform="translate(0 -34.072)"><g transform="translate(0 34.072)"><path class="a" d="M135.653,45.949a11.285,11.285,0,0,0-3.951.722v2.256a9.142,9.142,0,0,1,3.694-.915v.9h.214l-1.376,2.755h.934v5.658c0,.046.037.076.05.118s-.008.084.016.123l1.859,3.22-.808.467L138.934,63l-.191-3.168-.808.467L136.142,57.2V51.67h.933L135.7,48.915h.207l0-.9a9.2,9.2,0,0,1,4.168,1.141l-.441.76.445.254.444-.773a9.318,9.318,0,0,1,3.056,3.056l-.771.447.255.44.758-.44a9.268,9.268,0,0,1,1.144,4.168h-.9v.511h.9a9.274,9.274,0,0,1-1.144,4.172l-.758-.441-.253.443.77.446a9.374,9.374,0,0,1-3.058,3.056l-.445-.77-.441.252.438.761a9.188,9.188,0,0,1-4.168,1.14v-.9H135.4v.9a9.082,9.082,0,0,1-3.7-.915V67.98a11.371,11.371,0,1,0,3.95-22.031Z" transform="translate(-107.139 -43.734)"/><path class="a" d="M20.115,34.072H2.719A2.72,2.72,0,0,0,0,36.79V58.536a2.719,2.719,0,0,0,2.719,2.718h17.4a2.719,2.719,0,0,0,2.719-2.718V36.79A2.719,2.719,0,0,0,20.115,34.072Zm.974,24.465a.975.975,0,0,1-.974.973H2.719a.975.975,0,0,1-.974-.973V36.791a.975.975,0,0,1,.974-.973h17.4a.975.975,0,0,1,.974.973Z" transform="translate(0 -34.072)"/><path class="a" d="M34.657,73.917h-14.5a.5.5,0,0,0,0,1h14.5a.5.5,0,0,0,0-1Z" transform="translate(-15.988 -66.486)"/><path class="a" d="M34.657,86.125h-14.5a.5.5,0,1,0,0,1h14.5a.5.5,0,1,0,0-1Z" transform="translate(-15.988 -76.417)"/><path class="a" d="M34.657,98.322h-14.5a.5.5,0,0,0,0,1h14.5a.5.5,0,0,0,0-1Z" transform="translate(-15.988 -86.339)"/><path class="a" d="M28.925,110.528H20.152a.5.5,0,0,0,0,1h8.772a.5.5,0,0,0,0-1Z" transform="translate(-15.988 -96.269)"/><path class="a" d="M27.205,134.635H20.152a.5.5,0,1,0,0,1h7.053a.5.5,0,0,0,0-1Z" transform="translate(-15.988 -115.879)"/></g></g></svg>