<svg xmlns="http://www.w3.org/2000/svg" width="22" height="22" viewBox="0 0 22 22"><defs><style>.a{fill:#3f87d0;}</style></defs><path class="a" d="M6,12a10.932,10.932,0,0,1-4.282-.864,10.964,10.964,0,0,1-3.5-2.357A10.966,10.966,0,0,1-5,1,10.965,10.965,0,0,1-1.778-6.778a10.964,10.964,0,0,1,3.5-2.357,11.036,11.036,0,0,1,8.563,0,10.964,10.964,0,0,1,3.5,2.357A10.965,10.965,0,0,1,17,1a10.966,10.966,0,0,1-3.222,7.778,10.964,10.964,0,0,1-3.5,2.357A10.93,10.93,0,0,1,6,12ZM8.357-4.5-.548.738l8.9,5.238Z" transform="translate(5 10)"/></svg>