<svg xmlns="http://www.w3.org/2000/svg" width="27.918" height="31.525" viewBox="0 0 27.918 31.525"><defs><style>.a{fill:#fff;}.b{fill:#44c8e1;}</style></defs><g transform="translate(0 0)"><g transform="translate(0 0)"><path class="a" d="M-3254,230.627c0-.849-.589-1.356-1.629-1.356a3.564,3.564,0,0,0-.863.082v2.726a3.234,3.234,0,0,0,.7.054C-3254.686,232.133-3254,231.572-3254,230.627Z" transform="translate(3261.377 -214.474)"/><path class="a" d="M-3463.82-466.855h-.757v-3.652a.551.551,0,0,0-.007-.069.606.606,0,0,0-.146-.4l-6.078-6.943,0,0a.6.6,0,0,0-.123-.1c-.013-.009-.027-.016-.041-.024a.632.632,0,0,0-.122-.051l-.033-.011a.614.614,0,0,0-.142-.018h-14.938a1.238,1.238,0,0,0-1.236,1.236v10.04h-.757a1.767,1.767,0,0,0-1.767,1.767v9.189a1.767,1.767,0,0,0,1.767,1.767h.757v6.29a1.238,1.238,0,0,0,1.236,1.236h20.4a1.238,1.238,0,0,0,1.236-1.236v-6.29h.757a1.767,1.767,0,0,0,1.767-1.767v-9.188A1.767,1.767,0,0,0-3463.82-466.855Zm-22.392-10.04h14.32v6.325a.618.618,0,0,0,.618.618h5.46v3.1h-20.4Zm20.4,28.717h-20.4v-5.955h20.4v5.955Z" transform="translate(3489.972 478.131)"/></g><path class="b" d="M-3364.2,157.734a.253.253,0,0,1-.229-.134l-1.626-2.782h-.04l-1.64,2.782a.252.252,0,0,1-.228.134h-1.855a.1.1,0,0,1-.094-.047.109.109,0,0,1,.013-.114l2.729-4.557-2.541-4.261a.147.147,0,0,1-.007-.114.084.084,0,0,1,.087-.047h1.868a.244.244,0,0,1,.215.134l1.452,2.473h.04l1.452-2.473a.244.244,0,0,1,.215-.134h1.868a.085.085,0,0,1,.087.047.148.148,0,0,1-.007.114l-2.554,4.261,2.742,4.557a.147.147,0,0,1,.007.114.084.084,0,0,1-.087.047Z" transform="translate(3372.431 -135.484)"/><path class="b" d="M-2953.032,148.728a.119.119,0,0,1,.135-.134h1.707a.119.119,0,0,1,.134.135v7.177a.071.071,0,0,0,.081.081h4.032a.119.119,0,0,1,.135.133V157.6a.118.118,0,0,1-.135.133h-5.954a.119.119,0,0,1-.135-.134Z" transform="translate(2964.264 -135.484)"/><path class="b" d="M-2620,150.961a5.5,5.5,0,0,1-1.055-.1,6.3,6.3,0,0,1-.975-.269,4.989,4.989,0,0,1-.84-.4,3.665,3.665,0,0,1-.652-.484.155.155,0,0,1-.013-.228l1.022-1.169c.053-.072.121-.076.2-.013a5.535,5.535,0,0,0,1.062.652,3.045,3.045,0,0,0,1.331.289,1.758,1.758,0,0,0,1.109-.3.955.955,0,0,0,.383-.786.831.831,0,0,0-.3-.659,2.234,2.234,0,0,0-1.116-.363l-.484-.067a3.942,3.942,0,0,1-2.144-.854,2.4,2.4,0,0,1-.746-1.888,2.811,2.811,0,0,1,.228-1.149,2.447,2.447,0,0,1,.652-.88,3.038,3.038,0,0,1,1.021-.565,4.17,4.17,0,0,1,1.337-.2,5.672,5.672,0,0,1,1.72.255,4.469,4.469,0,0,1,1.385.7.122.122,0,0,1,.027.2l-.82,1.223a.127.127,0,0,1-.188.04,4.468,4.468,0,0,0-1.042-.524,3.366,3.366,0,0,0-1.082-.175,1.313,1.313,0,0,0-.914.282.923.923,0,0,0-.309.712.794.794,0,0,0,.316.645,2.317,2.317,0,0,0,1.109.363l.484.067a3.868,3.868,0,0,1,2.15.853,2.468,2.468,0,0,1,.726,1.915,2.871,2.871,0,0,1-.229,1.149,2.465,2.465,0,0,1-.678.914,3.228,3.228,0,0,1-1.122.6A5.127,5.127,0,0,1-2620,150.961Z" transform="translate(2641.703 -128.563)"/></g></svg>