<svg xmlns="http://www.w3.org/2000/svg" width="34.587" height="43.332" viewBox="0 0 34.587 43.332">
  <g id="Group_51" data-name="Group 51" transform="translate(-174.876 -1154.473)">
    <path id="Path_89" data-name="Path 89" d="M180.993,1261.462a5.162,5.162,0,0,1,2.157-4.188,13.807,13.807,0,0,1,.689-24.673,5.816,5.816,0,0,0,1.284,5.171,8.561,8.561,0,0,0-4.065,6.913c-.161,4.835,4.763,8.415,10.1,7.162l13.875-3.712a1.289,1.289,0,1,1,.667,2.49l-13.431,3.593.607,2.081h10.419a5.182,5.182,0,0,1,5.171,5.162Z" transform="translate(0 -64.657)" fill="#00d6f0" stroke="#181fbc" stroke-width="2"/>
    <path id="Path_90" data-name="Path 90" d="M279.891,1295.167a1.289,1.289,0,1,1-.667-2.49l7.18-1.921a1.289,1.289,0,1,1,.667,2.49l-7.18,1.921Z" transform="translate(-85.873 -113.394)" fill="#00d6f0" stroke="#181fbc" stroke-width="2"/>
    <path id="Path_91" data-name="Path 91" d="M243.1,1155.529l-3.122.835a.647.647,0,0,0-.457.79l1.046,3.9-1.2.32a1.349,1.349,0,0,0-.952,1.646l.739,2.755a3.87,3.87,0,1,0,2.006,7.476h0l1.1,4.095a1.3,1.3,0,0,0,1.583.912l6.868-1.837a1.293,1.293,0,0,0,.914-1.581l-3.845-14.326a1.351,1.351,0,0,0-1.649-.95l-1.2.32-1.046-3.9a.649.649,0,0,0-.792-.456Zm-2.6,15.228a1.293,1.293,0,1,0-1.586-.913,1.289,1.289,0,0,0,1.586.913Z" transform="translate(-50.66)" fill="#00d6f0" stroke="#181fbc" stroke-width="2" fill-rule="evenodd"/>
  </g>
</svg>
