<svg xmlns="http://www.w3.org/2000/svg" width="47.19" height="30.607" viewBox="0 0 47.19 30.607">
  <g id="Group_45" data-name="Group 45" transform="translate(-502.639 -204.455)">
    <line id="Line_4" data-name="Line 4" x1="6.437" transform="translate(515.536 224.42)" fill="none" stroke="#1330ad" stroke-linejoin="round" stroke-width="3"/>
    <line id="Line_5" data-name="Line 5" x1="5.623" y2="5.623" transform="translate(504.761 208.133)" fill="none" stroke="#1330ad" stroke-linecap="round" stroke-linejoin="round" stroke-width="3"/>
    <line id="Line_6" data-name="Line 6" y2="11.695" transform="translate(511.903 223.366)" fill="none" stroke="#1329b4" stroke-linejoin="round" stroke-width="3"/>
    <line id="Line_7" data-name="Line 7" y2="8.208" transform="translate(518.182 226.854)" fill="none" stroke="#00d0e8" stroke-linejoin="round" stroke-width="3"/>
    <line id="Line_8" data-name="Line 8" y2="10.641" transform="translate(527.837 224.42)" fill="none" stroke="#1329b4" stroke-linejoin="round" stroke-width="3"/>
    <line id="Line_9" data-name="Line 9" y2="8.208" transform="translate(534.117 226.854)" fill="none" stroke="#00d0e8" stroke-linejoin="round" stroke-width="3"/>
    <path id="Path_75" data-name="Path 75" d="M534.531,224.42c9.315,0,8.465-8.179,8.465-8.179h6.481c2.5,0,2.914-1.855.937-3.832-1.247-1.247-6.936-6.454-6.936-6.454l-4.057.046H519.359s-7.922-.579-7.922,8.887c0,0-.523,9.531,8.02,9.531h15.074Z" transform="translate(-3.342 0)" fill="#00d6f0" stroke="#1330ad" stroke-linejoin="round" stroke-width="3"/>
    <path id="Path_76" data-name="Path 76" d="M568.7,205.955a6.983,6.983,0,0,0-2.9,3.2h0l-3.3,1.922a1.454,1.454,0,1,0,1.45,2.521l1.812-1.042,0,0a9.961,9.961,0,0,0,2.454,3.687" transform="translate(-28.568 0)" fill="#00d6f0" stroke="#1330ad" stroke-linejoin="round" stroke-width="3"/>
  </g>
</svg>
