<svg xmlns="http://www.w3.org/2000/svg" width="48.693" height="39.875" viewBox="0 0 48.693 39.875">
  <g id="Group_49" data-name="Group 49" transform="translate(-1098.941 -157.64)">
    <g id="Group_48" data-name="Group 48" transform="translate(1100 158.702)">
      <path id="Path_77" data-name="Path 77" d="M1137.425,159.166c-3.106-1.2-6.917.209-8.567,1.054,3.557,2.391,2.84,6.382,3.422,8.591.653,2.476,3.336,4.977,6.182,4.2a5.7,5.7,0,0,0,1.73-.834,9.582,9.582,0,0,0-.075-1.264,8.711,8.711,0,0,0-.531-2.086,12.446,12.446,0,0,0-2.031-3.373c-.653-.785-1.129-1.22-1.069-1.3s.644.236,1.419.971a9.783,9.783,0,0,1,2.9,5.694c.039.284.061.557.072.818a7.994,7.994,0,0,0,2.264-3.3C1144.647,163.854,1140.327,160.287,1137.425,159.166Z" transform="translate(-1124.374 -158.702)" fill="#00d3ec" stroke="#1329b4" stroke-width="2"/>
      <path id="Path_78" data-name="Path 78" d="M1111.076,245.866a7.33,7.33,0,0,0-.972-.131,6.638,6.638,0,0,0-1.639.094,9.664,9.664,0,0,0-2.826,1.026c-.686.372-1.086.661-1.14.6s.263-.459.928-.939a7.464,7.464,0,0,1,4.712-1.361c.214.012.415.036.608.065a6.115,6.115,0,0,0-2.136-2.159c-3.151-1.784-6.461.943-7.725,2.96-1.354,2.16-.851,5.228-.457,6.592,2.315-2.324,5.21-1.2,6.954-1.319,1.956-.131,4.226-1.782,4.06-4.033A4.338,4.338,0,0,0,1111.076,245.866Z" transform="translate(-1100 -229.465)" fill="#00d3ec" stroke="#1329b4" stroke-width="2"/>
      <g id="Group_46" data-name="Group 46" transform="translate(15.327 19.232)">
        <path id="Path_79" data-name="Path 79" d="M1226.9,292l-18.181-5.515a6.221,6.221,0,1,0-3.61,11.9l18.181,5.515A6.221,6.221,0,1,0,1226.9,292Z" transform="translate(-1200.215 -285.619)" fill="#00d3ec" stroke="#1329b4" stroke-width="2"/>
        <path id="Path_80" data-name="Path 80" d="M1225.037,288.273l-18.181-5.515a6.221,6.221,0,1,0-3.61,11.9l18.181,5.515a6.221,6.221,0,1,0,3.609-11.9Z" transform="translate(-1198.643 -282.474)" fill="#00d3ec" stroke="#1329b4" stroke-width="2"/>
        <rect id="Rectangle_56" data-name="Rectangle 56" width="12.436" height="1.368" transform="translate(13.194 14.807) rotate(-74.651)" fill="#00d3ec" stroke="#1329b4" stroke-width="2"/>
      </g>
      <g id="Group_47" data-name="Group 47" transform="translate(11.806 5.63)">
        <path id="Path_81" data-name="Path 81" d="M1206.865,201.993a6.344,6.344,0,0,0-8.552-2.614l-16.92,8.641a6.221,6.221,0,1,0,5.656,11.075l16.92-8.642A6.344,6.344,0,0,0,1206.865,201.993Z" transform="translate(-1177.552 -198.08)" fill="#00d3ec" stroke="#1329b4" stroke-width="2"/>
        <path id="Path_82" data-name="Path 82" d="M1205,198.271a6.343,6.343,0,0,0-8.552-2.614l-16.92,8.641a6.221,6.221,0,1,0,5.656,11.075l16.92-8.642A6.344,6.344,0,0,0,1205,198.271Z" transform="translate(-1175.98 -194.937)" fill="#00d3ec" stroke="#1329b4" stroke-width="2"/>
        <rect id="Rectangle_57" data-name="Rectangle 57" width="1.368" height="12.435" transform="translate(11.403 5.352) rotate(-27.054)" fill="#00d3ec" stroke="#1329b4" stroke-width="2"/>
      </g>
    </g>
  </g>
</svg>
