<svg xmlns="http://www.w3.org/2000/svg" width="48.018" height="40.019" viewBox="0 0 48.018 40.019">
  <g id="Group_50" data-name="Group 50" transform="translate(-208 -52.981)">
    <path id="Path_84" data-name="Path 84" d="M227,69.02c8.41.23,15,2.372,15,4.98V87c0,2.761-7.387,5-16.5,5S209,89.761,209,87V74c0-1.553,2.336-2.94,6-3.857" fill="#00d6f0" stroke="#1329b4" stroke-miterlimit="10" stroke-width="2"/>
    <path id="Path_85" data-name="Path 85" d="M242,74c0,2.761-7.387,5-16.5,5S209,76.761,209,74" fill="#00d6f0" stroke="#1329b4" stroke-miterlimit="10" stroke-width="2"/>
    <path id="Path_86" data-name="Path 86" d="M228.556,67c-2.366-3.646-3.272-6.669-2.075-7.866l4.657-4.612c1.953-1.953,8.759,1.688,15.2,8.132s10.084,13.25,8.132,15.2l-4.657,4.612c-.964.964-3.113.564-5.817-.864" fill="#00d6f0" stroke="#1329b4" stroke-miterlimit="10" stroke-width="2"/>
    <path id="Path_87" data-name="Path 87" d="M226.481,59.139c1.953-1.953,8.76,1.688,15.2,8.131s10.085,13.25,8.132,15.2" fill="#00d6f0" stroke="#1329b4" stroke-miterlimit="10" stroke-width="2"/>
    <path id="Path_88" data-name="Path 88" d="M232,73c-6.667,0-9.958-3.167-10-4,0,0-4.458.556-6,4" fill="#00d6f0" stroke="#1329b4" stroke-miterlimit="10" stroke-width="2"/>
  </g>
</svg>
