<svg xmlns="http://www.w3.org/2000/svg" width="29.753" height="43.839" viewBox="0 0 29.753 43.839">
  <g id="Group_43" data-name="Group 43" transform="translate(-926.123 -91.147)">
    <path id="Path_65" data-name="Path 65" d="M932.6,134.986a3.641,3.641,0,0,1-3.64-3.633v-.109c0-.013,0-.026,0-.039l.812-20.8-3.228-3.017-.025-.024a1.358,1.358,0,0,1-.4-1.034l.632-14.216a1.007,1.007,0,1,1,2.012.089l-.619,13.928,3.335,3.116a1.007,1.007,0,0,1,.319.775l-.829,21.245v.089a1.627,1.627,0,1,0,3.253-.072l-.829-21.262a1.007,1.007,0,0,1,.318-.774l3.335-3.121L936.432,92.2a1.007,1.007,0,0,1,2.012-.089l.633,14.228a1.354,1.354,0,0,1-.4,1.022l-.024.023-3.224,3.017.812,20.8a3.642,3.642,0,0,1-3.638,3.781Z" fill="#181fbc"/>
    <path id="Path_66" data-name="Path 66" d="M962.3,103.09a1.007,1.007,0,0,1-1.007-1.007V92.155a1.007,1.007,0,1,1,2.014,0v9.929A1.007,1.007,0,0,1,962.3,103.09Z" transform="translate(-28.091 -0.001)" fill="#00d0e8"/>
    <path id="Path_67" data-name="Path 67" d="M946.29,103.09a1.007,1.007,0,0,1-1.007-1.007V92.155a1.007,1.007,0,1,1,2.014,0v9.929A1.007,1.007,0,0,1,946.29,103.09Z" transform="translate(-15.301 -0.001)" fill="#00d0e8"/>
    <path id="Path_68" data-name="Path 68" d="M1008.158,135a3.639,3.639,0,0,1-3.638-3.782l.809-20.727a11.861,11.861,0,0,1-4.506-10.231c.222-3.781,2.039-7.019,4.741-8.451a5.532,5.532,0,0,1,5.187,0c2.7,1.432,4.518,4.671,4.741,8.452a11.861,11.861,0,0,1-4.505,10.229l.809,20.724a3.643,3.643,0,0,1-3.638,3.785Zm0-41.822a3.521,3.521,0,0,0-1.651.411c-2.053,1.088-3.495,3.753-3.674,6.79a9.825,9.825,0,0,0,4.1,8.788,1.007,1.007,0,0,1,.433.867l-.83,21.26a1.632,1.632,0,0,0,.457,1.2,1.627,1.627,0,0,0,2.337,0,1.633,1.633,0,0,0,.457-1.2l-.83-21.257a1.007,1.007,0,0,1,.434-.867,9.823,9.823,0,0,0,4.095-8.786c-.179-3.037-1.621-5.7-3.674-6.792A3.522,3.522,0,0,0,1008.158,93.174Z" transform="translate(-59.639 -0.01)" fill="#1635a6"/>
    <path id="Path_83" data-name="Path 83" d="M947.151,132.686c-.244-1.6.762-23.223.762-23.223s-6.686-4.365-5.327-9.839,5.327-6.74,5.327-6.74,6.786.43,6.4,8.068-4.607,8.51-4.607,8.51l.905,23.223S947.395,134.281,947.151,132.686Z" fill="#00d0e8"/>
  </g>
</svg>
