<svg xmlns="http://www.w3.org/2000/svg" width="38.917" height="39.308" viewBox="0 0 38.917 39.308">
  <g id="Group_229" data-name="Group 229" transform="translate(-1463.73 -777.731)">
    <g id="Group_57" data-name="Group 57" transform="translate(1184.031 734.745)">
      <g id="Group_52" data-name="Group 52" transform="translate(279.7 76.741)">
        <path id="Path_92" data-name="Path 92" d="M309.212,118.755H280.264a.564.564,0,0,0-.564.564v4.425a.564.564,0,0,0,.564.564h28.949a.564.564,0,0,0,.564-.564v-4.425A.564.564,0,0,0,309.212,118.755Zm-.564,4.425H280.828v-3.3h27.821Z" transform="translate(-279.7 -118.755)" fill="#200dc4"/>
        <path id="Path_93" data-name="Path 93" d="M353.154,118.755h-2.333a.564.564,0,0,0-.564.564v4.425a.564.564,0,0,0,.564.564h2.333a.564.564,0,0,0,.564-.564v-4.425A.564.564,0,0,0,353.154,118.755Zm-.564,4.425h-1.2v-3.3h1.2Z" transform="translate(-319.187 -118.755)" fill="#200dc4"/>
        <path id="Path_94" data-name="Path 94" d="M363.115,118.755h-2.333a.564.564,0,0,0-.564.564v4.425a.564.564,0,0,0,.564.564h2.333a.564.564,0,0,0,.564-.564v-4.425A.564.564,0,0,0,363.115,118.755Zm-.564,4.425h-1.205v-3.3h1.205Z" transform="translate(-324.762 -118.755)" fill="#200dc4"/>
      </g>
      <g id="Group_53" data-name="Group 53" transform="translate(309.82 56.975)">
        <path id="Path_95" data-name="Path 95" d="M356.334,91.286a.564.564,0,0,1-.564-.564V83.83a8.519,8.519,0,0,0-7.183-8.512.564.564,0,1,1,.155-1.117A9.651,9.651,0,0,1,356.9,83.83v6.892A.564.564,0,0,1,356.334,91.286Z" transform="translate(-348.101 -74.196)" fill="#00d3ec"/>
      </g>
      <g id="Group_54" data-name="Group 54" transform="translate(279.7 42.986)">
        <path id="Path_96" data-name="Path 96" d="M280.264,55.341a.564.564,0,0,1-.564-.564,11.632,11.632,0,0,1,11.437-11.792,11,11,0,0,1,6.973,2.476.564.564,0,1,1-.708.878,9.888,9.888,0,0,0-6.265-2.225,10.5,10.5,0,0,0-10.309,10.663A.564.564,0,0,1,280.264,55.341Z" transform="translate(-279.7 -42.986)" fill="#00d3ec"/>
      </g>
      <g id="Group_55" data-name="Group 55" transform="translate(292.401 49.39)">
        <path id="Path_97" data-name="Path 97" d="M330.521,81.742a.564.564,0,0,1-.564-.564V79.443a4.524,4.524,0,0,0-4.435-4.6,11.494,11.494,0,0,1-9.833-5.426,7.964,7.964,0,0,1-1.1-5.99q-.235.023-.461.023a5.673,5.673,0,0,1-5.583-5.747.564.564,0,0,1,1.128,0,4.545,4.545,0,0,0,4.455,4.619,4.215,4.215,0,0,0,1.064-.15.564.564,0,0,1,.685.691,7.111,7.111,0,0,0,.778,5.97,10.36,10.36,0,0,0,8.868,4.881,5.652,5.652,0,0,1,5.563,5.725v1.735A.564.564,0,0,1,330.521,81.742Z" transform="translate(-308.544 -57.143)" fill="#2b00cc"/>
      </g>
      <g id="Group_56" data-name="Group 56" transform="translate(297.189 43.379)">
        <path id="Path_98" data-name="Path 98" d="M332.611,58.351a.564.564,0,0,1-.486-.85,8.423,8.423,0,0,0,1.154-4.271,8.1,8.1,0,0,0-7.947-8.225,7.8,7.8,0,0,0-4.991,1.824.564.564,0,0,1-.723-.865,8.929,8.929,0,0,1,5.714-2.087,9.227,9.227,0,0,1,9.075,9.353,9.55,9.55,0,0,1-1.31,4.843A.563.563,0,0,1,332.611,58.351Z" transform="translate(-319.416 -43.878)" fill="#00d3ec"/>
      </g>
      <path id="Path_99" data-name="Path 99" d="M298.885,54.917c-.325,11.285,10.275,11.374,10.275,11.374s-8.429-7.915-4.362-10.735,0-5.437,0-5.437-3.144,2.874-5.914,0-6.149,0-6.149,0,1.907,4.726,5,4.8S298.885,54.917,298.885,54.917Z" fill="#00d9f4" stroke="#2b00cc" stroke-width="1"/>
    </g>
    <rect id="Rectangle_58" data-name="Rectangle 58" width="28" height="4" transform="translate(1465 812)" fill="#00d6f0"/>
  </g>
</svg>
