<svg id="Layer_1" data-name="Layer 1" xmlns="http://www.w3.org/2000/svg" viewBox="0 0 693.5 637.5"><defs><style>.cls-1{fill:#fff;}</style></defs><title>login icon</title><path class="cls-1" d="M901,907.5H842c0-80.69,38-144.36,110-184.13,52-28.75,103.75-34.48,105.92-34.71l1.55-.16H1322c47.24,0,88.13,11.35,121.54,33.75,27,18.1,48.75,43.13,64.63,74.39,26.16,51.48,27.29,102.72,27.33,104.88l-59,1v.1c0-.41-1.19-41.4-21.76-80.82-11.34-21.73-26.46-38.92-44.92-51.07-23.37-15.39-52.92-23.19-87.83-23.19H1062.83c-7.41,1-46.18,7.14-83.78,28.33-23.09,13-41.32,29.18-54.18,48.07C909,847.16,901,875.29,901,907.5Z" transform="translate(-842 -270)"/><path class="cls-1" d="M1189,654c-105.87,0-192-86.13-192-192s86.13-192,192-192,192,86.13,192,192S1294.87,654,1189,654Zm0-325c-73.34,0-133,59.66-133,133s59.66,133,133,133,133-59.66,133-133S1262.34,329,1189,329Z" transform="translate(-842 -270)"/></svg>