<svg xmlns="http://www.w3.org/2000/svg" viewBox="0 0 1747 742" width="1747" height="742">
	<style>
		tspan { white-space:pre }
		.shp0 { fill: #000000 } 
		.shp1 { fill: #1a39a0 } 
		.shp2 { fill: #0375c3 } 
		.shp3 { fill: #32cae1 } 
	</style>
	<g id="Layer">
		<g id="Layer">
			<path id="Layer" class="shp0" d="M1729.3,276.4c0,68.6 0,137.6 0,207.5c-5.1,0.2 -9.4,0.6 -13.6,0.6c-90.8,0 -181.5,0 -272.3,0c-33.1,0 -62.3,-8.9 -83.2,-39c-24.4,36.6 -61,44.3 -100.3,43.1c-39.6,-1.2 -73.7,-14.8 -96.5,-54.9c-0.9,2.8 -1.1,4.6 -2,6.1c-18.1,31.1 -46.3,44.4 -81.1,44.6c-75.4,0.4 -150.8,0.1 -226.2,0.1c-71,0 -142,-0.1 -213.1,0.1c-10,0 -20.2,1 -29.9,3.3c-27.1,6.6 -41.4,26.6 -39.6,54c1.5,23.5 18.1,39.7 45.6,42.1c21.3,1.8 42.9,1.3 64.3,1.8c4.3,0.1 8.6,0.4 13.8,0.6c0,15.8 0,30.9 0,47.5c-40.8,-0.3 -81.6,4.3 -120.9,-10.4c-40.7,-15.2 -60.8,-53.2 -54.3,-101.1c6.4,-47.3 35.7,-76.1 84.7,-82.8c12.5,-1.7 25.3,-2.6 38,-2.6c60.9,-0.3 121.9,-0.5 182.8,0.2c12.3,0.2 17.4,-3.8 18.7,-15.3c1.3,-10.9 4.3,-21.6 4.9,-32.4c1.7,-27.9 -11.2,-48.1 -35.7,-60.6c-31,-15.9 -64.4,-16 -97.6,-11.5c-22,3 -43.6,9.2 -67.2,14.3c-3.9,-13.8 -8,-28.2 -12.4,-43.6c50.3,-16.8 100.2,-25.8 152.1,-18c27.8,4.2 53.1,14.3 73.8,34.3c25.6,24.7 33.8,55.5 31.7,89.8c-0.8,13.8 -3,27.6 -4.6,42c29.9,0 59.1,0 89.5,0c0,-45.2 0,-89.7 0,-135.4c16.2,0 31.2,0 47.8,0c0,44.9 0,89.8 0,137.2c25.5,-1.3 49.6,-1 73.2,-4.2c24.9,-3.4 40.6,-21.2 42.7,-46.4c1.8,-20.5 1.2,-41.1 1.5,-61.7c0.1,-7.9 0,-15.7 0,-24.8c15.8,0 30.8,0 47.8,0c0,21.2 -0.4,42.6 0.2,63.9c0.3,10.9 0.8,22.1 3.7,32.4c5.8,20.3 19.3,35.1 40.3,39.2c14.7,2.9 30.7,3.7 45.4,1.1c29,-5.2 45.2,-27.9 45.7,-60.4c0.5,-29.4 0.1,-58.8 0.1,-88.1c0,-4.7 0,-9.5 0,-15.3c16.3,0 31.4,0 48.1,0c0.2,4.5 0.7,9.1 0.7,13.7c0.1,27.6 -0.1,55.2 0.1,82.9c0.3,42.8 23.1,65.9 65.7,66.5c13.5,0.2 27,0 38.7,0c-3.5,-18 -9.1,-35.3 -9.8,-52.7c-2.1,-59 33.8,-102.5 92.7,-106.9c54.1,-4.1 108.6,-2 162.9,-2.5c0.9,0.1 1.7,0.9 3.1,1.7zM1681.8,323.9c-40.5,0 -79.5,-1.9 -118.2,0.6c-29.6,1.9 -47.2,24.3 -48,53.1c-0.9,30.1 15.5,50.7 45.3,57c4.7,1 9.5,2.1 14.3,2.1c35.3,0.2 70.7,0.1 106.6,0.1c0,-38.5 0,-75.6 0,-112.9z" />
			<path id="Layer" class="shp0" d="M1598.1,208c0.1,16.1 12.4,27.1 30.4,27.2c18.2,0 30,-10.8 29.9,-27.4c-0.1,-16.7 -11.6,-27.1 -30.1,-27c-18.3,0.1 -30.3,10.9 -30.2,27.2z" />
		</g>
		<g id="Layer">
			<path id="Layer" class="shp0" d="M1205.6,631.3v95.3h17.6v-41.2h52.8v-12h-52.8v-30.1h56.8v-12h-74.4z" />
			<path id="Layer" class="shp0" d="M1369.6,701.3h-48.3l-12.9,25.2h-17.6l50.7,-96.5h9.2l50.9,96.5h-18.7zM1326.5,690.1h38l-14.1,-27.1l-4.7,-14.5h-0.3l-4.7,14.8z" />
			<path id="Layer" class="shp0" d="M1476.6,707.8c-1.5,1.9 -3.6,3.5 -6.2,4.7c-2.6,1.2 -5.7,2.1 -9.2,2.7c-3.5,0.6 -7.3,0.9 -11.4,0.9c-7.1,0 -13.7,-0.5 -19.6,-1.7c-5.9,-1.1 -10.4,-2.3 -13.3,-3.4l-5.8,11.8c3.4,1.3 8.4,2.5 15,3.6c6.7,1.1 14.8,1.7 24.4,1.7c7.2,0 13.6,-0.7 19.2,-2c5.6,-1.3 10.4,-3.2 14.4,-5.6c4,-2.4 7.1,-5.4 9.2,-8.8c2.1,-3.5 3.2,-7.3 3.2,-11.6c0,-5.2 -1.6,-9.4 -4.8,-12.7c-3.2,-3.3 -7.2,-6.1 -12,-8.4c-4.8,-2.3 -10,-4.2 -15.5,-5.7c-5.5,-1.5 -10.7,-3.1 -15.5,-4.8c-4.8,-1.6 -8.8,-3.5 -12,-5.7c-3.2,-2.2 -4.8,-5 -4.8,-8.5c0,-3.4 2,-6.4 6,-9c4,-2.6 10,-3.9 18,-3.9c7.1,0 13.5,0.4 19.4,1.3c5.9,0.9 10.3,1.9 13.2,3l5.5,-11.4c-3.8,-1.4 -8.9,-2.6 -15.5,-3.5c-6.5,-0.9 -13.7,-1.4 -21.6,-1.4c-13.6,0 -24.1,2.4 -31.4,7.1c-7.3,4.7 -11,10.9 -11,18.6c0,5.6 1.6,10.1 4.8,13.5c3.2,3.4 7.2,6.2 12,8.4c4.8,2.2 10,4 15.5,5.4c5.5,1.4 10.7,2.9 15.5,4.5c4.8,1.6 8.8,3.4 12,5.6c3.2,2.2 4.8,5.1 4.8,8.8c0,2.6 -0.7,4.8 -2.5,6.5z" />
			<path id="Layer" class="shp0" d="M1585.3,701.3h-48.3l-12.9,25.2h-17.6l50.7,-96.5h9.2l50.9,96.5h-18.7zM1542.3,690.1h38l-14.1,-27.1l-4.7,-14.5h-0.3l-4.7,14.8z" />
			<path id="Layer" class="shp0" d="M1714.4,726.5h17.6v-95.2h-17.6v40.7h-62.5v-40.7h-17.6v95.2h17.6v-42.6h62.5z" />
		</g>
		<g id="Layer">
			<path id="Layer" class="shp1" d="M228.8,389.6h219.9l-107.4,-192h-219.9z" />
			<path id="Layer" class="shp2" d="M121.4,197.6h219.9l-107.4,-192h-219.9z" />
			<path id="Layer" class="shp3" d="M341.8,197.6h219.9l-107.4,-192h-219.9z" />
		</g>
	</g>
</svg>