<svg xmlns="http://www.w3.org/2000/svg" width="73.368" height="90.118" viewBox="0 0 73.368 90.118">
  <g id="pdf-file" transform="translate(-44.806)">
    <path id="Path_241" data-name="Path 241" d="M122.924,299.8c0-1.5-1.038-2.389-2.871-2.389a6.356,6.356,0,0,0-1.52.145v4.8a5.759,5.759,0,0,0,1.231.094C121.717,302.452,122.924,301.466,122.924,299.8Z" transform="translate(-59.947 -241.822)" fill="#fff"/>
    <path id="Path_242" data-name="Path 242" d="M195.468,297.681a7.581,7.581,0,0,0-1.664.144V308.46a6.654,6.654,0,0,0,1.279.074c3.329.024,5.5-1.809,5.5-5.691C200.606,299.466,198.628,297.681,195.468,297.681Z" transform="translate(-121.148 -242.041)" fill="#fff"/>
    <path id="Path_243" data-name="Path 243" d="M95.394,0H59.2a9.605,9.605,0,0,0-9.591,9.591V45.059h-.937a3.864,3.864,0,0,0-3.865,3.865v23.44a3.864,3.864,0,0,0,3.865,3.865h.937v4.3A9.6,9.6,0,0,0,59.2,90.118h49.387a9.6,9.6,0,0,0,9.589-9.591V22.7ZM54.945,53.154a30.3,30.3,0,0,1,4.968-.336,7.793,7.793,0,0,1,4.968,1.3,4.752,4.752,0,0,1,1.737,3.762,5.2,5.2,0,0,1-1.5,3.859,7.539,7.539,0,0,1-5.282,1.712,9.519,9.519,0,0,1-1.255-.071v5.812H54.945Zm53.64,31.09H59.2a3.721,3.721,0,0,1-3.715-3.718v-4.3h46.038a3.864,3.864,0,0,0,3.865-3.865V48.924a3.864,3.864,0,0,0-3.865-3.865H55.484V9.591A3.719,3.719,0,0,1,59.2,5.88l34-.036V18.411a6.654,6.654,0,0,0,6.652,6.652l12.31-.035.139,55.5A3.718,3.718,0,0,1,108.586,84.244ZM68.966,69.12V53.154a33.1,33.1,0,0,1,4.968-.336c3.087,0,5.089.554,6.657,1.735A7.193,7.193,0,0,1,83.34,60.68a8.239,8.239,0,0,1-2.7,6.584c-1.712,1.423-4.317,2.1-7.5,2.1A31.822,31.822,0,0,1,68.966,69.12Zm26.322-9.453v2.99H89.451v6.537h-3.69V52.939H95.7v3.013H89.451v3.715Z" fill="#fff"/>
  </g>
</svg>
