<svg xmlns="http://www.w3.org/2000/svg" width="244.144" height="35.215" viewBox="0 0 244.144 35.215"><defs><style>.a{fill:#34a448;}.b{fill:#006ab5;}.c{fill:#e94529;}</style></defs><g transform="translate(358.133 -855.47)"><path class="a" d="M-187.206,999.8a1.251,1.251,0,0,1,1.079.544l-.489.236a.74.74,0,0,0-.261-.253.724.724,0,0,0-.334-.068.7.7,0,0,0-.417.116.338.338,0,0,0-.166.287q0,.24.435.384l.4.133a1.752,1.752,0,0,1,.712.392.779.779,0,0,1,.225.566.911.911,0,0,1-.369.744,1.427,1.427,0,0,1-.919.294,1.408,1.408,0,0,1-.859-.25,1.088,1.088,0,0,1-.417-.706l.611-.109a.73.73,0,0,0,.145.4.687.687,0,0,0,.543.211.714.714,0,0,0,.469-.154.486.486,0,0,0,.186-.39.456.456,0,0,0-.032-.173.422.422,0,0,0-.1-.146.775.775,0,0,0-.178-.124,1.909,1.909,0,0,0-.259-.111l-.386-.13q-.82-.282-.821-.826a.734.734,0,0,1,.345-.613,1.426,1.426,0,0,1,.858-.249" transform="translate(-144.377 -122.904)"/><path class="a" d="M-165.075,1000.688h-1.393v.785h1.343v.459h-1.343v1.549h-.6v-3.253h2Z" transform="translate(-162.697 -123.268)"/><path class="a" d="M-147.773,1003.02h.272a2.794,2.794,0,0,0,.674-.068,1.462,1.462,0,0,0,.486-.235,1.025,1.025,0,0,0,.445-.862,1.042,1.042,0,0,0-.439-.87,1.919,1.919,0,0,0-1.165-.3h-.272Zm-.6.461v-3.253h.838a3.709,3.709,0,0,1,.953.1,1.933,1.933,0,0,1,.68.323,1.435,1.435,0,0,1,.618,1.208,1.428,1.428,0,0,1-.644,1.213,2,2,0,0,1-.678.322,3.742,3.742,0,0,1-.94.091Z" transform="translate(-178.618 -123.268)"/><path class="a" d="M-125.775,1001.048l-.592-1.107-.622,1.107Zm.246.459h-1.711l-.445.79h-.65l1.977-3.459,1.908,3.459h-.661Z" transform="translate(-195.684 -122.086)"/><path class="b" d="M-334.495,892.5c-7.514-4.919-21.817,11.387-21.817,11.387v.592l4.418-4.283c8.653-7.56,12.707-3.233,12.707-3.233,6.241,6.741-18.947,23.047-18.947,23.047l.092.227c5.464-2.141,16.76-11.478,16.76-11.478,12.98-11.887,6.786-16.26,6.786-16.26" transform="translate(0 -30.748)"/><path class="a" d="M-224.884,908.678v-.229a137.444,137.444,0,0,0-16.171,6.787s-.591-4.692,7.835-7.151l-.045-.455s-11.614,2.5-11.932,10.2c0,0-12.48,9.246-8.017,15.121,0,0,3.6,4.508,14.029-1.5,0,0,7.014-4.282,9.473-6.333l-.046-.5s-13.435,11.2-18.126,4.463,20.176-19.63,23-20.4" transform="translate(-88.522 -44.418)"/><path class="c" d="M-185.54,855.47a3.233,3.233,0,0,0-3.234,3.234,3.234,3.234,0,0,0,3.234,3.234,3.234,3.234,0,0,0,3.233-3.234,3.233,3.233,0,0,0-3.233-3.234" transform="translate(-144.217)"/><path class="b" d="M.31,922.615c-.163-.163-.293-.309-.293-.945a2.386,2.386,0,0,1,2.378-2.2,4.242,4.242,0,0,1,1.32.342l-.293.6a2.145,2.145,0,0,0-1.027-.277c-.8,0-1.711.685-1.711,1.319,0,.474.017.685.213.88.244.326.733.277,1.45.277H3.911l-.375.668H0v-.668Z" transform="translate(-304.967 -54.499)"/><rect class="b" width="1.466" height="11.602" transform="translate(-299.671 857.182)"/><path class="b" d="M66.029,894.874c0,4.725-1.923,5.213-5.312,5.279-.424.016-1.63-.016-1.63-.016s-.39-.554-.945-1.467c2.64,0,4.986.244,5.67-.765a4.5,4.5,0,0,0,.75-2.9c0-2.737-1.042-5.068-3.487-5.019-1.63.033-3.52.749-3.52,3.814,0,1.335.7,1.662,1.907,1.662H63.4l-1.01,1.466h-2.2c-3.031,0-4.106-.359-4.106-3.128a5.155,5.155,0,0,1,4.986-5.28c3.617,0,4.954,3.422,4.954,6.355" transform="translate(-352.73 -28.143)"/><path class="b" d="M132.575,897.485l-.749-1.466h5.637c1.548,0,2.477.114,3.031-.587a2.719,2.719,0,0,0,.489-1.955c0-1.369-1.857-2.835-3.617-2.835-2.445,0-3.128,1.466-3.813,3.324H132s.212-.783.375-1.271a4.989,4.989,0,0,1,4.986-3.521,5.225,5.225,0,0,1,5.181,4.792,5.133,5.133,0,0,1-.5,2.053h1.613v1.466Z" transform="translate(-417.224 -28.701)"/><path class="b" d="M208.743,877.139V867h1.466v11.6h-3.748v-1.466Z" transform="translate(-480.779 -9.821)"/><rect class="b" width="1.467" height="11.602" transform="translate(-268.582 857.182)"/><path class="b" d="M275.456,894.874c0,4.725-1.923,5.213-5.312,5.279-.424.016-1.629-.016-1.629-.016s-.391-.554-.945-1.467c2.64,0,4.986.244,5.671-.765a4.5,4.5,0,0,0,.749-2.9c0-2.737-1.043-5.068-3.487-5.019-1.629.033-3.519.749-3.519,3.814,0,1.335.7,1.662,1.907,1.662h3.943l-1.01,1.466h-2.2c-3.031,0-4.107-.359-4.107-3.128a5.155,5.155,0,0,1,4.986-5.28c3.618,0,4.954,3.422,4.954,6.355" transform="translate(-531.067 -28.143)"/><path class="b" d="M371.746,922.615c-.163-.163-.293-.309-.293-.945a2.387,2.387,0,0,1,2.379-2.2,4.253,4.253,0,0,1,1.32.342l-.294.6a2.143,2.143,0,0,0-1.026-.277c-.8,0-1.711.685-1.711,1.319,0,.474.017.685.213.88.244.326.733.277,1.45.277h1.564l-.375.668h-3.536v-.668Z" transform="translate(-621.263 -54.499)"/><rect class="b" width="1.467" height="11.602" transform="translate(-244.531 857.182)"/><path class="b" d="M432.083,870.023a1,1,0,1,1-1.124-.864.993.993,0,0,1,1.124.864m-5.345,10.412-.75-1.466h5.638c1.548,0,2.477.114,3.031-.587a2.719,2.719,0,0,0,.489-1.955c0-1.369-1.858-2.835-3.617-2.835-2.445,0-3.128,1.466-3.813,3.324h-1.548s.212-.783.375-1.271a4.99,4.99,0,0,1,4.986-3.521,5.226,5.226,0,0,1,5.181,4.792,5.122,5.122,0,0,1-.5,2.053h1.613v1.466Z" transform="translate(-667.717 -11.65)"/><path class="b" d="M507.229,868.7a1,1,0,1,1-1.125-.864.994.994,0,0,1,1.125.864m4.171,6.6c0-1.369-1.743-2.835-4.237-2.835-1.76,0-4.2,1.466-4.2,2.835,0,1.075.033,1.5.391,1.955.553.7,2.249.587,3.8.587s3.308.114,3.862-.587C511.367,876.8,511.4,876.376,511.4,875.3Zm-10.771,2.542h1.483c-.358-.342-.619-.652-.619-2.053a4.46,4.46,0,0,1,1.613-3.324h-1.515l1.32-1.467h4.774a5.226,5.226,0,0,1,5.181,4.792c0,1.4-.26,1.711-.619,2.053h1.482v1.466h-13.1Z" transform="translate(-731.277 -10.525)"/><path class="b" d="M587.645,877.329v-10.1h1.466v10.1h1.857v1.483l-5.606-.017v-1.466Z" transform="translate(-803.432 -10.011)"/><path class="b" d="M621.894,877.139V867h1.467v11.6h-3.748v-1.466Z" transform="translate(-832.597 -9.821)"/><path class="b" d="M691.136,866.948a1,1,0,1,1-1.124-.863,1,1,0,0,1,1.124.863m-2.151,0a1,1,0,1,1-1.124-.863A.995.995,0,0,1,688.986,866.948Zm-3.471,6.861c0,1.075-.1,1.531.261,1.988.553.7,1.808.554,3.357.554h3.34c1.222-.017.554-2.379.554-2.379-.685-1.874-1.353-3-3.8-3C687.47,870.974,685.515,872.44,685.515,873.809Zm9.011-4.3v6.845H695.7v1.466h-9.353a3.335,3.335,0,0,1-1.874-1.3c-.391-.716-.423-.815-.423-2.215a5.225,5.225,0,0,1,5.18-4.792,5.3,5.3,0,0,1,3.781,1.548l.016-1.548Z" transform="translate(-887.468 -9.033)"/><path class="b" d="M765.435,909.938a3.86,3.86,0,0,1,.9,3.569,2.26,2.26,0,0,1-.505,1.027c-.5.7-1.27,1.482-2,1.042-1.19-.7-2.51-1.433-2.51-1.433l.212-1.629a19.07,19.07,0,0,0,2.607,1.5s.815-.048.815-1.547a1.956,1.956,0,0,0-2.118-2.038c-1.272,0-1.63.587-1.875,1.646-.212.913-.065,1.727-.977,2.183a2.017,2.017,0,0,1-.994.147h-.408v-1.466h.408c.277,0,.57.016.57-.228,0-1.532.6-3.667,3.536-3.667a3.357,3.357,0,0,1,2.346.9" transform="translate(-950.93 -45.619)"/><path class="b" d="M823.569,878.607h-3.748v-11.6h1.467v10.136h2.281Z" transform="translate(-1003.084 -9.823)"/><path class="b" d="M851.669,893.477c0-1.369-1.744-2.835-4.237-2.835-1.759,0-4.2,1.466-4.2,2.835,0,1.075.032,1.5.391,1.955.554.7,2.249.587,3.8.587s3.308.114,3.862-.587c.359-.457.391-.88.391-1.955m-10.77,2.542h1.482c-.358-.342-.619-.652-.619-2.053a4.461,4.461,0,0,1,1.613-3.324H841.86l1.32-1.467h4.775a5.226,5.226,0,0,1,5.182,4.792c0,1.4-.261,1.711-.62,2.053H854v1.466H840.9Z" transform="translate(-1021.033 -28.701)"/><path class="b" d="M927.91,877.139V867h1.467v11.6h-3.748v-1.466Z" transform="translate(-1093.184 -9.821)"/><rect class="b" width="1.467" height="11.602" transform="translate(-161.82 857.182)"/><path class="b" d="M1017.789,866.948a1,1,0,1,1-1.124-.863,1,1,0,0,1,1.124.863m-2.151,0a1,1,0,1,1-1.125-.863A1,1,0,0,1,1015.638,866.948Zm-3.471,6.861c0,1.075-.1,1.531.261,1.988.554.7,1.809.554,3.357.554h3.34c1.222-.017.554-2.379.554-2.379-.684-1.874-1.353-3-3.8-3C1014.123,870.974,1012.168,872.44,1012.168,873.809Zm9.01-4.3v6.845h1.174v1.466H1013a3.338,3.338,0,0,1-1.874-1.3c-.391-.716-.423-.815-.423-2.215a5.225,5.225,0,0,1,5.181-4.792,5.3,5.3,0,0,1,3.781,1.548l.016-1.548Z" transform="translate(-1165.628 -9.033)"/><path class="b" d="M1087.088,879.257c-.115-.115-.212-.228-.212-.686a1.724,1.724,0,0,1,1.711-1.58,3.15,3.15,0,0,1,.961.244l-.212.441a1.506,1.506,0,0,0-.749-.212c-.57,0-1.223.506-1.223.961,0,.326.017.489.147.62.18.245.538.212,1.043.212h1.125l-.261.472h-2.542v-.472Zm.423,6.387v-4.563h1.467v4.563h1.857v1.483l-5.6-.017v-1.466Z" transform="translate(-1229.093 -18.326)"/><path class="b" d="M1122.93,912.349a1,1,0,1,1-1.124-.863.993.993,0,0,1,1.124.863m-2.15,0a1,1,0,1,1-1.125-.863A.994.994,0,0,1,1120.78,912.349Zm-.342-3.242v-4.563h1.467v4.563h1.857v1.483l-5.606-.017v-1.466Z" transform="translate(-1257.131 -41.788)"/><path class="b" d="M1161.855,886.659c0-1.287-2.069-2.819-3.7-2.819V889.2c1.629,0,2.8.049,3.307-.587.359-.457.391-.88.391-1.955m-5.165-2.722c-1.678-.016-3.275,1.581-3.275,2.722a2.905,2.905,0,0,0,.39,1.955c.473.618,2.885.587,2.885.587Zm0-2.1,1.467-.667v1.189a5.222,5.222,0,0,1,5.165,4.792c0,1.4-.26,1.711-.619,2.053h1.483v1.466h-13.1V889.2h1.483c-.358-.342-.619-.652-.619-2.053,0-1.923,1.76-4.139,4.741-4.677Z" transform="translate(-1285.171 -21.883)"/><path class="b" d="M1237.664,877.139V867h1.466v11.6h-3.747v-1.466Z" transform="translate(-1356.955 -9.821)"/><rect class="b" width="1.467" height="11.602" transform="translate(-115.837 857.182)"/><path class="b" d="M8.909,1005.717l-1.18.7a2.028,2.028,0,0,0-.63-.748,1.471,1.471,0,0,0-.805-.2,1.489,1.489,0,0,0-1.005.344,1.066,1.066,0,0,0-.4.849q0,.706,1.048,1.136l.96.393a4.11,4.11,0,0,1,1.716,1.158,2.617,2.617,0,0,1,.542,1.676,2.942,2.942,0,0,1-.888,2.2,3.047,3.047,0,0,1-2.217.874,2.947,2.947,0,0,1-2.072-.75,3.454,3.454,0,0,1-1-2.1l1.473-.325A2.492,2.492,0,0,0,4.8,1012.1a1.514,1.514,0,0,0,1.311.625,1.525,1.525,0,0,0,1.13-.456,1.574,1.574,0,0,0,.449-1.153,1.613,1.613,0,0,0-.078-.513,1.312,1.312,0,0,0-.243-.43,1.946,1.946,0,0,0-.428-.368,4.133,4.133,0,0,0-.625-.328l-.93-.386q-1.979-.836-1.979-2.445a2.313,2.313,0,0,1,.834-1.814,3.012,3.012,0,0,1,2.069-.736,2.885,2.885,0,0,1,2.6,1.624" transform="translate(-307.499 -126.56)"/><path class="b" d="M57.508,1031.389a2.114,2.114,0,0,0,.468,1.423,1.534,1.534,0,0,0,1.211.555,1.613,1.613,0,0,0,1.26-.536,2.307,2.307,0,0,0,0-2.82,1.588,1.588,0,0,0-1.248-.542,1.55,1.55,0,0,0-1.211.549,2.017,2.017,0,0,0-.48,1.371m3.34-3.008h1.406v6.072H60.848v-.637a2.7,2.7,0,0,1-3.959-.1,3.382,3.382,0,0,1-.819-2.322,3.278,3.278,0,0,1,.819-2.278,2.643,2.643,0,0,1,2.052-.912,2.582,2.582,0,0,1,1.907.881Z" transform="translate(-352.714 -147.093)"/><path class="b" d="M117.934,1029.389v3.48q0,1.506,1.2,1.506t1.2-1.506v-3.48h1.407v3.516a3.91,3.91,0,0,1-.182,1.26,2.112,2.112,0,0,1-.607.855,2.97,2.97,0,0,1-3.625,0,2.145,2.145,0,0,1-.62-.855,3.459,3.459,0,0,1-.175-1.26v-3.516Z" transform="translate(-404.197 -148.1)"/><path class="b" d="M168.11,1006.73a2.117,2.117,0,0,0,.468,1.422,1.535,1.535,0,0,0,1.211.555,1.614,1.614,0,0,0,1.261-.536,2.31,2.31,0,0,0,0-2.82,1.591,1.591,0,0,0-1.248-.542,1.551,1.551,0,0,0-1.211.549,2.023,2.023,0,0,0-.481,1.372m3.34-7.482h1.406v10.547H171.45v-.637a2.625,2.625,0,0,1-1.882.812,2.682,2.682,0,0,1-2.076-.912,3.382,3.382,0,0,1-.819-2.322,3.271,3.271,0,0,1,.819-2.273,2.633,2.633,0,0,1,3.958-.043Z" transform="translate(-446.897 -122.434)"/><path class="b" d="M226.189,1015.758h-1.406v-6.072h1.406Zm-1.614-8.6a.915.915,0,0,1,.908-.9.881.881,0,0,1,.647.268.867.867,0,0,1,.267.643.888.888,0,0,1-.267.649.862.862,0,0,1-.641.268.878.878,0,0,1-.646-.268A.89.89,0,0,1,224.575,1007.154Z" transform="translate(-496.204 -128.396)"/><path class="b" d="M291.528,1006.756H288.17v2.3h3.239v1.375H288.17v4.586h-1.439v-9.636h4.8Z" transform="translate(-549.133 -127.656)"/><path class="b" d="M334.872,1031.388a2.051,2.051,0,0,0,.487,1.441,1.89,1.89,0,0,0,2.632.006,2.281,2.281,0,0,0,0-2.832,1.869,1.869,0,0,0-2.62,0,1.956,1.956,0,0,0-.5,1.385m-1.438-.019a3.018,3.018,0,0,1,.943-2.24,3.327,3.327,0,0,1,4.609.005,3.256,3.256,0,0,1-.007,4.575,3.222,3.222,0,0,1-2.33.918,3.094,3.094,0,0,1-2.291-.936A3.151,3.151,0,0,1,333.434,1031.369Z" transform="translate(-588.902 -147.091)"/><path class="b" d="M391.792,1031.388a2.048,2.048,0,0,0,.486,1.441,1.89,1.89,0,0,0,2.632.006,2.282,2.282,0,0,0,0-2.832,1.869,1.869,0,0,0-2.62,0,1.956,1.956,0,0,0-.5,1.385m-1.438-.019a3.017,3.017,0,0,1,.943-2.24,3.326,3.326,0,0,1,4.608.005,3.254,3.254,0,0,1-.007,4.575,3.218,3.218,0,0,1-2.328.918,3.094,3.094,0,0,1-2.292-.936A3.149,3.149,0,0,1,390.354,1031.369Z" transform="translate(-637.372 -147.091)"/><path class="b" d="M450.439,1006.73a2.114,2.114,0,0,0,.468,1.422,1.533,1.533,0,0,0,1.211.555,1.613,1.613,0,0,0,1.26-.536,2.31,2.31,0,0,0,0-2.82,1.591,1.591,0,0,0-1.248-.542,1.55,1.55,0,0,0-1.21.549,2.018,2.018,0,0,0-.481,1.372m3.34-7.482h1.406v10.547h-1.406v-.637a2.624,2.624,0,0,1-1.882.812,2.682,2.682,0,0,1-2.076-.912,3.381,3.381,0,0,1-.819-2.322,3.27,3.27,0,0,1,.819-2.273,2.634,2.634,0,0,1,3.959-.043Z" transform="translate(-687.313 -122.434)"/><path class="b" d="M540.32,1007.711l.119-.087c.2-.154.371-.288.5-.4a2.011,2.011,0,0,0,.287-.29.875.875,0,0,0,.188-.568.8.8,0,0,0-.256-.618.965.965,0,0,0-.685-.237.948.948,0,0,0-.66.243.747.747,0,0,0-.268.593,1.314,1.314,0,0,0,.336.836l.362.437a.714.714,0,0,0,.074.093m-.307,1.855-.081.056a7.055,7.055,0,0,0-1.218.992,1.214,1.214,0,0,0-.318.793,1.647,1.647,0,0,0,1.58,1.579,3.018,3.018,0,0,0,1.941-1.1Zm1.152-.824,1.738,2.1.056-.062c.188-.2.364-.4.53-.6s.327-.394.481-.593l.949.973c-.117.167-.269.361-.459.582s-.415.474-.677.761l1.786,2.2h-1.811l-.961-1.18a3.856,3.856,0,0,1-2.756,1.371,3.1,3.1,0,0,1-2.175-.818,2.686,2.686,0,0,1-.875-2.037,2.828,2.828,0,0,1,1.392-2.4l.631-.431.043-.031.087-.07a2.981,2.981,0,0,1-.955-2,2.1,2.1,0,0,1,.637-1.586,2.583,2.583,0,0,1,3.315-.019,1.94,1.94,0,0,1,.65,1.5,1.915,1.915,0,0,1-.356,1.129A6.063,6.063,0,0,1,541.166,1008.743Z" transform="translate(-762.241 -126.744)"/><path class="b" d="M640.857,1013.643h.659a5.521,5.521,0,0,0,1.637-.205,3.318,3.318,0,0,0,1.18-.691,3.277,3.277,0,0,0,1.079-2.546,3.327,3.327,0,0,0-1.066-2.566,4.059,4.059,0,0,0-2.829-.879h-.659Zm-1.438,1.375v-9.636h2.025a7.377,7.377,0,0,1,2.3.288,4.322,4.322,0,0,1,1.644.955,4.978,4.978,0,0,1-.062,7.171,4.532,4.532,0,0,1-1.638.954,7.426,7.426,0,0,1-2.268.269Z" transform="translate(-849.463 -127.656)"/><path class="b" d="M705.273,1028.382h1.406v.543a2.675,2.675,0,0,1,.686-.556,1.522,1.522,0,0,1,.724-.163,2.27,2.27,0,0,1,1.161.362l-.643,1.286a1.341,1.341,0,0,0-.78-.287q-1.149,0-1.148,1.735v3.152h-1.406Z" transform="translate(-905.541 -147.093)"/><path class="b" d="M747.074,1029.389v3.48q0,1.506,1.2,1.506t1.2-1.506v-3.48h1.407v3.516a3.9,3.9,0,0,1-.182,1.26,2.115,2.115,0,0,1-.607.855,2.97,2.97,0,0,1-3.625,0,2.149,2.149,0,0,1-.619-.855,3.449,3.449,0,0,1-.176-1.26v-3.516Z" transform="translate(-939.939 -148.1)"/><path class="b" d="M800.07,1031.422a2.036,2.036,0,0,0-.475-1.413,1.573,1.573,0,0,0-1.231-.542,1.517,1.517,0,0,0-1.263.591,2.142,2.142,0,0,0-.419,1.37,2.117,2.117,0,0,0,.419,1.357,1.516,1.516,0,0,0,1.263.579,1.542,1.542,0,0,0,1.275-.586,2.08,2.08,0,0,0,.431-1.358m1.343,2.892q0,.429-.028.758a5.379,5.379,0,0,1-.078.577,2.561,2.561,0,0,1-.587,1.178,2.848,2.848,0,0,1-2.267.949,3.014,3.014,0,0,1-2-.657,2.683,2.683,0,0,1-.937-1.867h1.411a1.591,1.591,0,0,0,.268.693,1.512,1.512,0,0,0,1.274.568q1.541,0,1.542-1.891v-.849a2.623,2.623,0,0,1-1.929.855,2.588,2.588,0,0,1-2.034-.9,3.329,3.329,0,0,1-.8-2.279,3.507,3.507,0,0,1,.742-2.26,2.58,2.58,0,0,1,2.11-.986,2.442,2.442,0,0,1,1.91.863v-.687h1.406Z" transform="translate(-982.157 -147.091)"/><path class="b" d="M887.37,1007.827l-1.429-3.277-1.5,3.277Zm.594,1.374h-4.125l-1.074,2.333H881.2l4.769-10.243,4.6,10.243h-1.592Z" transform="translate(-1055.35 -124.173)"/><path class="b" d="M957.043,1029.389v3.48q0,1.506,1.2,1.506t1.2-1.506v-3.48h1.406v3.516a3.9,3.9,0,0,1-.182,1.26,2.118,2.118,0,0,1-.607.855,2.97,2.97,0,0,1-3.626,0,2.155,2.155,0,0,1-.619-.855,3.46,3.46,0,0,1-.176-1.26v-3.516Z" transform="translate(-1118.738 -148.1)"/><path class="b" d="M1008.312,1017.868v4.761h-1.406v-4.761h-.6v-1.311h.6v-2.237h1.406v2.237h1.093v1.311Z" transform="translate(-1161.886 -135.269)"/><path class="b" d="M1039.88,999.248h1.406v4.973a2.424,2.424,0,0,1,1.658-.674,2.146,2.146,0,0,1,1.652.669,2.712,2.712,0,0,1,.526,1.853v3.726h-1.407v-3.6a1.713,1.713,0,0,0-.259-1.058,1,1,0,0,0-.836-.328,1.15,1.15,0,0,0-1.039.456,3.119,3.119,0,0,0-.294,1.587v2.943h-1.406Z" transform="translate(-1190.475 -122.434)"/><path class="b" d="M1091.192,1031.388a2.048,2.048,0,0,0,.486,1.441,1.891,1.891,0,0,0,2.633.006,2.283,2.283,0,0,0,0-2.832,1.714,1.714,0,0,0-1.316-.536,1.7,1.7,0,0,0-1.3.536,1.953,1.953,0,0,0-.5,1.385m-1.438-.019a3.019,3.019,0,0,1,.942-2.24,3.326,3.326,0,0,1,4.608.005,3.254,3.254,0,0,1-.005,4.575,3.222,3.222,0,0,1-2.329.918,3.093,3.093,0,0,1-2.292-.936A3.149,3.149,0,0,1,1089.753,1031.369Z" transform="translate(-1232.944 -147.091)"/><path class="b" d="M1149.183,1028.382h1.406v.543a2.679,2.679,0,0,1,.687-.556,1.519,1.519,0,0,1,.723-.163,2.269,2.269,0,0,1,1.161.362l-.643,1.286a1.341,1.341,0,0,0-.78-.287q-1.148,0-1.148,1.735v3.152h-1.406Z" transform="translate(-1283.552 -147.093)"/><path class="b" d="M1188.653,1015.758h-1.406v-6.072h1.406Zm-1.614-8.6a.914.914,0,0,1,.908-.9.881.881,0,0,1,.647.268.867.867,0,0,1,.267.643.888.888,0,0,1-.267.649.861.861,0,0,1-.641.268.878.878,0,0,1-.647-.268A.891.891,0,0,1,1187.039,1007.154Z" transform="translate(-1315.788 -128.396)"/><path class="b" d="M1213.336,1017.868v4.761h-1.406v-4.761h-.6v-1.311h.6v-2.237h1.406v2.237h1.092v1.311Z" transform="translate(-1336.474 -135.269)"/><path class="b" d="M1243.322,1034.334l-2.733-4.945h1.629l1.86,3.5,1.735-3.5h1.586l-4.844,9.38h-1.6Z" transform="translate(-1361.388 -148.101)"/><rect class="a" width="190.412" height="0.448" transform="translate(-304.938 874.408)"/></g></svg>